999
dxfrw 0.6.3
  0
SECTION
  2
HEADER
  9
$ACADVER
  1
AC1021
  9
$DWGCODEPAGE
  3
ANSI_1252
  9
$INSBASE
 10
0
 20
0
 30
0
  9
$EXTMIN
 10
-33.12500000000002
 20
-5.000005
 30
0
  9
$EXTMAX
 10
261.25
 20
383.125
 30
0
  9
$LIMMIN
 10
0
 20
0
  9
$LIMMAX
 10
420
 20
297
  9
$ORTHOMODE
 70
    0
  9
$REGENMODE
 70
    1
  9
$FILLMODE
 70
    1
  9
$QTEXTMODE
 70
    0
  9
$MIRRTEXT
 70
    0
  9
$LTSCALE
 40
1
  9
$ATTMODE
 70
    0
  9
$TEXTSIZE
 40
2.5
  9
$TRACEWID
 40
15.68
  9
$TEXTSTYLE
  7
STANDARD
  9
$CLAYER
  8
Dimensions
  9
$CELTYPE
  6
BYLAYER
  9
$CECOLOR
 62
  256
  9
$CELTSCALE
 40
1
  9
$DISPSILH
 70
    0
  9
$DIMSCALE
 40
1
  9
$DIMASZ
 40
2.5
  9
$DIMEXO
 40
0.625
  9
$DIMDLI
 40
3.75
  9
$DIMRND
 40
0
  9
$DIMDLE
 40
0
  9
$DIMEXE
 40
1.25
  9
$DIMTP
 40
0
  9
$DIMTM
 40
0
  9
$DIMTXT
 40
2.5
  9
$DIMCEN
 40
2.5
  9
$DIMTSZ
 40
0
  9
$DIMTOL
 70
    0
  9
$DIMLIM
 70
    0
  9
$DIMTIH
 70
    0
  9
$DIMTOH
 70
    0
  9
$DIMSE1
 70
    0
  9
$DIMSE2
 70
    0
  9
$DIMTAD
 70
    1
  9
$DIMZIN
 70
    8
  9
$DIMBLK
  1

  9
$DIMASO
 70
    1
  9
$DIMSHO
 70
    1
  9
$DIMPOST
  1

  9
$DIMAPOST
  1

  9
$DIMALT
 70
    0
  9
$DIMALTD
 70
    3
  9
$DIMALTF
 40
0.03937
  9
$DIMLFAC
 40
1
  9
$DIMTOFL
 70
    1
  9
$DIMTVP
 40
0
  9
$DIMTIX
 70
    0
  9
$DIMSOXD
 70
    0
  9
$DIMSAH
 70
    0
  9
$DIMBLK1
  1

  9
$DIMBLK2
  1

  9
$DIMSTYLE
  2
Standard
  9
$DIMCLRD
 70
    0
  9
$DIMCLRE
 70
    0
  9
$DIMCLRT
 70
    0
  9
$DIMTFAC
 40
1
  9
$DIMGAP
 40
0.625
  9
$DIMJUST
 70
    0
  9
$DIMSD1
 70
    0
  9
$DIMSD2
 70
    0
  9
$DIMTOLJ
 70
    0
  9
$DIMTZIN
 70
    8
  9
$DIMALTZ
 70
    0
  9
$DIMALTTZ
 70
    0
  9
$DIMUPT
 70
    0
  9
$DIMDEC
 70
    2
  9
$DIMTDEC
 70
    2
  9
$DIMALTU
 70
    2
  9
$DIMALTTD
 70
    3
  9
$DIMTXSTY
  7
STANDARD
  9
$DIMAUNIT
 70
    0
  9
$DIMADEC
 70
    0
  9
$DIMALTRND
 40
0
  9
$DIMAZIN
 70
    0
  9
$DIMDSEP
 70
   44
  9
$DIMATFIT
 70
    3
  9
$DIMFRAC
 70
    0
  9
$DIMLDRBLK
  1
STANDARD
  9
$DIMLUNIT
 70
    2
  9
$DIMLWD
 70
   -2
  9
$DIMLWE
 70
   -2
  9
$DIMTMOVE
 70
    0
  9
$DIMFXL
 40
1
  9
$DIMFXLON
 70
    0
  9
$DIMJOGANG
 40
0.7854
  9
$DIMTFILL
 70
    0
  9
$DIMTFILLCLR
 70
    0
  9
$DIMARCSYM
 70
    0
  9
$DIMLTYPE
  6

  9
$DIMLTEX1
  6

  9
$DIMLTEX2
  6

  9
$LUNITS
 70
    2
  9
$LUPREC
 70
    4
  9
$SKETCHINC
 40
1
  9
$FILLETRAD
 40
0
  9
$AUNITS
 70
    0
  9
$AUPREC
 70
    2
  9
$MENU
  1
.
  9
$ELEVATION
 40
0
  9
$PELEVATION
 40
0
  9
$THICKNESS
 40
0
  9
$LIMCHECK
 70
    0
  9
$CHAMFERA
 40
0
  9
$CHAMFERB
 40
0
  9
$CHAMFERC
 40
0
  9
$CHAMFERD
 40
0
  9
$SKPOLY
 70
    0
  9
$USRTIMER
 70
    1
  9
$ANGBASE
 50
0
  9
$ANGDIR
 70
    0
  9
$PDMODE
 70
   34
  9
$PDSIZE
 40
0
  9
$PLINEWID
 40
0
  9
$SPLFRAME
 70
    0
  9
$SPLINETYPE
 70
    2
  9
$SPLINESEGS
 70
    8
  9
$HANDSEED
  5
20000
  9
$SURFTAB1
 70
    6
  9
$SURFTAB2
 70
    6
  9
$SURFTYPE
 70
    6
  9
$SURFU
 70
    6
  9
$SURFV
 70
    6
  9
$UCSBASE
  2

  9
$UCSNAME
  2

  9
$UCSORG
 10
0
 20
0
 30
0
  9
$UCSXDIR
 10
1
 20
0
 30
0
  9
$UCSYDIR
 10
0
 20
1
 30
0
  9
$UCSORTHOREF
  2

  9
$UCSORTHOVIEW
 70
    0
  9
$UCSORGTOP
 10
0
 20
0
 30
0
  9
$UCSORGBOTTOM
 10
0
 20
0
 30
0
  9
$UCSORGLEFT
 10
0
 20
0
 30
0
  9
$UCSORGRIGHT
 10
0
 20
0
 30
0
  9
$UCSORGFRONT
 10
0
 20
0
 30
0
  9
$UCSORGBACK
 10
0
 20
0
 30
0
  9
$PUCSBASE
  2

  9
$PUCSNAME
  2

  9
$PUCSORG
 10
0
 20
0
 30
0
  9
$PUCSXDIR
 10
1
 20
0
 30
0
  9
$PUCSYDIR
 10
0
 20
1
 30
0
  9
$PUCSORTHOREF
  2

  9
$PUCSORTHOVIEW
 70
    0
  9
$PUCSORGTOP
 10
0
 20
0
 30
0
  9
$PUCSORGBOTTOM
 10
0
 20
0
 30
0
  9
$PUCSORGLEFT
 10
0
 20
0
 30
0
  9
$PUCSORGRIGHT
 10
0
 20
0
 30
0
  9
$PUCSORGFRONT
 10
0
 20
0
 30
0
  9
$PUCSORGBACK
 10
0
 20
0
 30
0
  9
$USERI1
 70
    0
  9
$USERI2
 70
    0
  9
$USERI3
 70
    0
  9
$USERI4
 70
    0
  9
$USERI5
 70
    0
  9
$USERR1
 40
0
  9
$USERR2
 40
0
  9
$USERR3
 40
0
  9
$USERR4
 40
0
  9
$USERR5
 40
0
  9
$WORLDVIEW
 70
    1
  9
$SHADEDGE
 70
    3
  9
$SHADEDIF
 70
   70
  9
$TILEMODE
 70
    1
  9
$MAXACTVP
 70
   64
  9
$PINSBASE
 10
0
 20
0
 30
0
  9
$PLIMCHECK
 70
    0
  9
$PEXTMIN
 10
0
 20
0
 30
0
  9
$PEXTMAX
 10
0
 20
0
 30
0
  9
$GRIDMODE
 70
    0
  9
$SNAPSTYLE
 70
    0
  9
$PLIMMIN
 10
0
 20
0
  9
$PLIMMAX
 10
210
 20
297
  9
$UNITMODE
 70
    0
  9
$VISRETAIN
 70
    1
  9
$PLINEGEN
 70
    0
  9
$PSLTSCALE
 70
    1
  9
$TREEDEPTH
 70
 3020
  9
$CMLSTYLE
  2
Standard
  9
$CMLJUST
 70
    0
  9
$CMLSCALE
 40
20
  9
$PROXYGRAPHICS
 70
    1
  9
$MEASUREMENT
 70
    1
  9
$CELWEIGHT
370
   -1
  9
$ENDCAPS
280
    0
  9
$JOINSTYLE
280
    0
  9
$LWDISPLAY
290
    0
  9
$INSUNITS
 70
    4
  9
$HYPERLINKBASE
  1

  9
$STYLESHEET
  1

  9
$XEDIT
290
    1
  9
$CEPSNTYPE
380
    0
  9
$PSTYLEMODE
290
    1
  9
$EXTNAMES
290
    1
  9
$PSVPSCALE
 40
1
  9
$OLESTARTUP
290
    0
  9
$SORTENTS
280
  127
  9
$INDEXCTL
280
    0
  9
$HIDETEXT
280
    1
  9
$XCLIPFRAME
290
    0
  9
$HALOGAP
280
    0
  9
$OBSCOLOR
 70
  257
  9
$OBSLTYPE
280
    0
  9
$INTERSECTIONDISPLAY
280
    0
  9
$INTERSECTIONCOLOR
 70
  257
  9
$DIMASSOC
280
    1
  9
$PROJECTNAME
  1

  9
$CAMERADISPLAY
290
    0
  9
$LENSLENGTH
 40
50
  9
$CAMERAHEIGHT
 40
0
  9
$STEPSPERSEC
 40
2
  9
$STEPSIZE
 40
50
  9
$3DDWFPREC
 40
2
  9
$PSOLWIDTH
 40
5
  9
$PSOLHEIGHT
 40
80
  9
$LOFTANG1
 40
1.570796326794897
  9
$LOFTANG2
 40
1.570796326794897
  9
$LOFTMAG1
 40
0
  9
$LOFTMAG2
 40
0
  9
$LOFTPARAM
 70
    7
  9
$LOFTNORMALS
280
    1
  9
$LATITUDE
 40
1
  9
$LONGITUDE
 40
1
  9
$NORTHDIRECTION
 40
0
  9
$TIMEZONE
 70
-8000
  9
$LIGHTGLYPHDISPLAY
280
    1
  9
$TILEMODELIGHTSYNCH
280
    1
  9
$SOLIDHIST
280
    1
  9
$SHOWHIST
280
    1
  9
$DWFFRAME
280
    2
  9
$DGNFRAME
280
    0
  9
$REALWORLDSCALE
290
    1
  9
$INTERFERECOLOR
 62
    1
  9
$CSHADOW
280
    0
  9
$SHADOWPLANELOCATION
 40
0
  0
ENDSEC
  0
SECTION
  2
CLASSES
  0
ENDSEC
  0
SECTION
  2
TABLES
  0
TABLE
  2
VPORT
  5
8
330
0
100
AcDbSymbolTable
 70
    1
  0
VPORT
  5
31
330
2
100
AcDbSymbolTableRecord
100
AcDbViewportTableRecord
  2
*ACTIVE
 70
    0
 10
0
 20
0
 11
1
 21
1
 12
162.5605305699484
 22
128.3658279792748
 13
0
 23
0
 14
10
 24
10
 15
10
 25
10
 16
0
 26
0
 36
1
 17
0
 27
0
 37
0
 40
139.6736000000002
 41
1.441709844559586
 42
50
 43
0
 44
0
 50
0
 51
0
 71
    0
 72
  100
 73
    1
 74
    3
 75
    0
 76
    0
 77
    0
 78
    0
281
    0
 65
    1
110
0
120
0
130
0
111
1
121
0
131
0
112
0
122
1
132
0
 79
    0
146
0
348
10020
 60
    7
 61
    5
292
1
282
    1
141
0
142
0
 63
  250
421
3358443
  0
ENDTAB
  0
TABLE
  2
LTYPE
  5
5
330
0
100
AcDbSymbolTable
 70
    4
  0
LTYPE
  5
14
330
5
100
AcDbSymbolTableRecord
100
AcDbLinetypeTableRecord
  2
ByBlock
 70
    0
  3

 72
   65
 73
    0
 40
0
  0
LTYPE
  5
15
330
5
100
AcDbSymbolTableRecord
100
AcDbLinetypeTableRecord
  2
ByLayer
 70
    0
  3

 72
   65
 73
    0
 40
0
  0
LTYPE
  5
16
330
5
100
AcDbSymbolTableRecord
100
AcDbLinetypeTableRecord
  2
Continuous
 70
    0
  3
Solid line
 72
   65
 73
    0
 40
0
  0
LTYPE
  5
32
330
5
100
AcDbSymbolTableRecord
100
AcDbLinetypeTableRecord
  2
DOT
 70
    0
  3
Dot . . . . . . . . . . . . . . . . . . . . . .
 72
   65
 73
    2
 40
6.35
 49
0
 74
    0
 49
-6.35
 74
    0
  0
LTYPE
  5
33
330
5
100
AcDbSymbolTableRecord
100
AcDbLinetypeTableRecord
  2
DOTTINY
 70
    0
  3
Dot (.15x) .....................................
 72
   65
 73
    2
 40
0.9525
 49
0
 74
    0
 49
-0.9525
 74
    0
  0
LTYPE
  5
34
330
5
100
AcDbSymbolTableRecord
100
AcDbLinetypeTableRecord
  2
DOT2
 70
    0
  3
Dot (.5x) .....................................
 72
   65
 73
    2
 40
3.175
 49
0
 74
    0
 49
-3.175
 74
    0
  0
LTYPE
  5
35
330
5
100
AcDbSymbolTableRecord
100
AcDbLinetypeTableRecord
  2
DOTX2
 70
    0
  3
Dot (2x) .  .  .  .  .  .  .  .  .  .  .  .  .
 72
   65
 73
    2
 40
12.7
 49
0
 74
    0
 49
-12.7
 74
    0
  0
LTYPE
  5
36
330
5
100
AcDbSymbolTableRecord
100
AcDbLinetypeTableRecord
  2
DASHED
 70
    0
  3
Dashed _ _ _ _ _ _ _ _ _ _ _ _ _ _ _ _ _
 72
   65
 73
    2
 40
19.05
 49
12.7
 74
    0
 49
-6.35
 74
    0
  0
LTYPE
  5
37
330
5
100
AcDbSymbolTableRecord
100
AcDbLinetypeTableRecord
  2
DASHEDTINY
 70
    0
  3
Dashed (.15x) _ _ _ _ _ _ _ _ _ _ _ _ _ _ _ _ _
 72
   65
 73
    2
 40
2.8575
 49
1.905
 74
    0
 49
-0.9525
 74
    0
  0
LTYPE
  5
38
330
5
100
AcDbSymbolTableRecord
100
AcDbLinetypeTableRecord
  2
DASHED2
 70
    0
  3
Dashed (.5x) _ _ _ _ _ _ _ _ _ _ _ _ _ _ _ _ _
 72
   65
 73
    2
 40
9.524999999999999
 49
6.35
 74
    0
 49
-3.175
 74
    0
  0
LTYPE
  5
39
330
5
100
AcDbSymbolTableRecord
100
AcDbLinetypeTableRecord
  2
DASHEDX2
 70
    0
  3
Dashed (2x) ____  ____  ____  ____  ____  ___
 72
   65
 73
    2
 40
38.09999999999999
 49
25.4
 74
    0
 49
-12.7
 74
    0
  0
LTYPE
  5
3A
330
5
100
AcDbSymbolTableRecord
100
AcDbLinetypeTableRecord
  2
DASHDOT
 70
    0
  3
Dash dot __ . __ . __ . __ . __ . __ . __ . __
 72
   65
 73
    4
 40
25.4
 49
12.7
 74
    0
 49
-6.35
 74
    0
 49
0
 74
    0
 49
-6.35
 74
    0
  0
LTYPE
  5
3B
330
5
100
AcDbSymbolTableRecord
100
AcDbLinetypeTableRecord
  2
DASHDOTTINY
 70
    0
  3
Dash dot (.15x) _._._._._._._._._._._._._._._.
 72
   65
 73
    4
 40
3.81
 49
1.905
 74
    0
 49
-0.9525
 74
    0
 49
0
 74
    0
 49
-0.9525
 74
    0
  0
LTYPE
  5
3C
330
5
100
AcDbSymbolTableRecord
100
AcDbLinetypeTableRecord
  2
DASHDOT2
 70
    0
  3
Dash dot (.5x) _._._._._._._._._._._._._._._.
 72
   65
 73
    4
 40
12.7
 49
6.35
 74
    0
 49
-3.175
 74
    0
 49
0
 74
    0
 49
-3.175
 74
    0
  0
LTYPE
  5
3D
330
5
100
AcDbSymbolTableRecord
100
AcDbLinetypeTableRecord
  2
DASHDOTX2
 70
    0
  3
Dash dot (2x) ____  .  ____  .  ____  .  ___
 72
   65
 73
    4
 40
50.8
 49
25.4
 74
    0
 49
-12.7
 74
    0
 49
0
 74
    0
 49
-12.7
 74
    0
  0
LTYPE
  5
3E
330
5
100
AcDbSymbolTableRecord
100
AcDbLinetypeTableRecord
  2
DIVIDE
 70
    0
  3
Divide ____ . . ____ . . ____ . . ____ . . ____
 72
   65
 73
    6
 40
31.75
 49
12.7
 74
    0
 49
-6.35
 74
    0
 49
0
 74
    0
 49
-6.35
 74
    0
 49
0
 74
    0
 49
-6.35
 74
    0
  0
LTYPE
  5
3F
330
5
100
AcDbSymbolTableRecord
100
AcDbLinetypeTableRecord
  2
DIVIDETINY
 70
    0
  3
Divide (.15x) __..__..__..__..__..__..__..__.._
 72
   65
 73
    6
 40
4.7625
 49
1.905
 74
    0
 49
-0.9525
 74
    0
 49
0
 74
    0
 49
-0.9525
 74
    0
 49
0
 74
    0
 49
-0.9525
 74
    0
  0
LTYPE
  5
40
330
5
100
AcDbSymbolTableRecord
100
AcDbLinetypeTableRecord
  2
DIVIDE2
 70
    0
  3
Divide (.5x) __..__..__..__..__..__..__..__.._
 72
   65
 73
    6
 40
15.875
 49
6.35
 74
    0
 49
-3.175
 74
    0
 49
0
 74
    0
 49
-3.175
 74
    0
 49
0
 74
    0
 49
-3.175
 74
    0
  0
LTYPE
  5
41
330
5
100
AcDbSymbolTableRecord
100
AcDbLinetypeTableRecord
  2
DIVIDEX2
 70
    0
  3
Divide (2x) ________  .  .  ________  .  .  _
 72
   65
 73
    6
 40
63.5
 49
25.4
 74
    0
 49
-12.7
 74
    0
 49
0
 74
    0
 49
-12.7
 74
    0
 49
0
 74
    0
 49
-12.7
 74
    0
  0
LTYPE
  5
42
330
5
100
AcDbSymbolTableRecord
100
AcDbLinetypeTableRecord
  2
BORDER
 70
    0
  3
Border __ __ . __ __ . __ __ . __ __ . __ __ .
 72
   65
 73
    6
 40
44.45
 49
12.7
 74
    0
 49
-6.35
 74
    0
 49
12.7
 74
    0
 49
-6.35
 74
    0
 49
0
 74
    0
 49
-6.35
 74
    0
  0
LTYPE
  5
43
330
5
100
AcDbSymbolTableRecord
100
AcDbLinetypeTableRecord
  2
BORDERTINY
 70
    0
  3
Border (.15x) __.__.__.__.__.__.__.__.__.__.__.
 72
   65
 73
    6
 40
6.6675
 49
1.905
 74
    0
 49
-0.9525
 74
    0
 49
1.905
 74
    0
 49
-0.9525
 74
    0
 49
0
 74
    0
 49
-0.9525
 74
    0
  0
LTYPE
  5
44
330
5
100
AcDbSymbolTableRecord
100
AcDbLinetypeTableRecord
  2
BORDER2
 70
    0
  3
Border (.5x) __.__.__.__.__.__.__.__.__.__.__.
 72
   65
 73
    6
 40
22.225
 49
6.35
 74
    0
 49
-3.175
 74
    0
 49
6.35
 74
    0
 49
-3.175
 74
    0
 49
0
 74
    0
 49
-3.175
 74
    0
  0
LTYPE
  5
45
330
5
100
AcDbSymbolTableRecord
100
AcDbLinetypeTableRecord
  2
BORDERX2
 70
    0
  3
Border (2x) ____  ____  .  ____  ____  .  ___
 72
   65
 73
    6
 40
88.89999999999999
 49
25.4
 74
    0
 49
-12.7
 74
    0
 49
25.4
 74
    0
 49
-12.7
 74
    0
 49
0
 74
    0
 49
-12.7
 74
    0
  0
LTYPE
  5
46
330
5
100
AcDbSymbolTableRecord
100
AcDbLinetypeTableRecord
  2
CENTER
 70
    0
  3
Center ____ _ ____ _ ____ _ ____ _ ____ _ ____
 72
   65
 73
    4
 40
50.8
 49
31.75
 74
    0
 49
-6.35
 74
    0
 49
6.35
 74
    0
 49
-6.35
 74
    0
  0
LTYPE
  5
47
330
5
100
AcDbSymbolTableRecord
100
AcDbLinetypeTableRecord
  2
CENTERTINY
 70
    0
  3
Center (.15x) ___ _ ___ _ ___ _ ___ _ ___ _ ___
 72
   65
 73
    4
 40
7.62
 49
4.7625
 74
    0
 49
-0.9525
 74
    0
 49
0.9525
 74
    0
 49
-0.9525
 74
    0
  0
LTYPE
  5
48
330
5
100
AcDbSymbolTableRecord
100
AcDbLinetypeTableRecord
  2
CENTER2
 70
    0
  3
Center (.5x) ___ _ ___ _ ___ _ ___ _ ___ _ ___
 72
   65
 73
    4
 40
28.575
 49
19.05
 74
    0
 49
-3.175
 74
    0
 49
3.175
 74
    0
 49
-3.175
 74
    0
  0
LTYPE
  5
49
330
5
100
AcDbSymbolTableRecord
100
AcDbLinetypeTableRecord
  2
CENTERX2
 70
    0
  3
Center (2x) ________  __  ________  __  _____
 72
   65
 73
    4
 40
101.6
 49
63.5
 74
    0
 49
-12.7
 74
    0
 49
12.7
 74
    0
 49
-12.7
 74
    0
  0
ENDTAB
  0
TABLE
  2
LAYER
  5
2
330
0
100
AcDbSymbolTable
 70
    1
  0
LAYER
  5
10
330
2
100
AcDbSymbolTableRecord
100
AcDbLayerTableRecord
  2
0
 70
    0
 62
    7
  6
CONTINUOUS
370
   -3
390
F
  0
LAYER
  5
4A
330
2
100
AcDbSymbolTableRecord
100
AcDbLayerTableRecord
  2
Dimensions
 70
    0
 62
    3
  6
CONTINUOUS
370
    0
390
F
  0
LAYER
  5
4B
330
2
100
AcDbSymbolTableRecord
100
AcDbLayerTableRecord
  2
Layer_1
 70
    0
 62
    7
  6
CONTINUOUS
370
   -3
390
F
  0
ENDTAB
  0
TABLE
  2
STYLE
  5
3
330
0
100
AcDbSymbolTable
 70
    3
  0
STYLE
  5
4C
330
2
100
AcDbSymbolTableRecord
100
AcDbTextStyleTableRecord
  2
Standard
 70
    0
 40
0
 41
1
 50
0
 71
    0
 42
1
  3
txt
  4

  0
ENDTAB
  0
TABLE
  2
VIEW
  5
6
330
0
100
AcDbSymbolTable
 70
    0
  0
ENDTAB
  0
TABLE
  2
UCS
  5
7
330
0
100
AcDbSymbolTable
 70
    0
  0
ENDTAB
  0
TABLE
  2
APPID
  5
9
330
0
100
AcDbSymbolTable
 70
    1
  0
APPID
  5
12
330
9
100
AcDbSymbolTableRecord
100
AcDbRegAppTableRecord
  2
ACAD
 70
    0
  0
APPID
  5
4D
330
9
100
AcDbSymbolTableRecord
100
AcDbRegAppTableRecord
  2
LibreCad
 70
    0
  0
ENDTAB
  0
TABLE
  2
DIMSTYLE
  5
A
330
0
100
AcDbSymbolTable
 70
    1
100
AcDbDimStyleTable
 71
    1
  0
DIMSTYLE
105
4E
330
A
100
AcDbSymbolTableRecord
100
AcDbDimStyleTableRecord
  2
Standard
 70
    0
 40
1
 41
2.5
 42
0.625
 43
0.38
 44
1.25
 45
0
 46
0
 47
0
 48
0
 49
1
140
2.5
141
0.09
142
0
143
25.4
144
1
145
0
146
1
147
0.625
148
0
 71
    0
 72
    0
 73
    0
 74
    1
 75
    0
 76
    0
 77
    0
 78
    1
 79
    0
170
    0
171
    2
172
    0
173
    0
174
    0
175
    0
176
    0
177
    0
178
    0
179
    0
271
    2
272
    4
273
    2
274
    2
275
    0
276
    0
277
    2
278
    0
279
    0
280
    0
281
    0
282
    0
283
    1
284
    0
285
    0
286
    0
288
    0
289
    3
340
standard
341

371
   -2
372
   -2
  0
ENDTAB
  0
TABLE
  2
BLOCK_RECORD
  5
1
330
0
100
AcDbSymbolTable
 70
    2
  0
BLOCK_RECORD
  5
1F
330
1
100
AcDbSymbolTableRecord
100
AcDbBlockTableRecord
  2
*Model_Space
 70
    0
280
    1
281
    0
  0
BLOCK_RECORD
  5
1E
330
1
100
AcDbSymbolTableRecord
100
AcDbBlockTableRecord
  2
*Paper_Space
 70
    0
280
    1
281
    0
  0
BLOCK_RECORD
  5
4F
330
1
100
AcDbSymbolTableRecord
100
AcDbBlockTableRecord
  2
*D3
 70
    0
280
    1
281
    0
  0
BLOCK_RECORD
  5
52
330
1
100
AcDbSymbolTableRecord
100
AcDbBlockTableRecord
  2
*D1
 70
    0
280
    1
281
    0
  0
BLOCK_RECORD
  5
55
330
1
100
AcDbSymbolTableRecord
100
AcDbBlockTableRecord
  2
*D2
 70
    0
280
    1
281
    0
  0
ENDTAB
  0
ENDSEC
  0
SECTION
  2
BLOCKS
  0
BLOCK
  5
20
330
1F
100
AcDbEntity
  8
0
100
AcDbBlockBegin
  2
*Model_Space
 70
    0
 10
0
 20
0
 30
0
  3
*Model_Space
  1

  0
ENDBLK
  5
21
330
1F
100
AcDbEntity
  8
0
100
AcDbBlockEnd
  0
BLOCK
  5
1C
330
1B
100
AcDbEntity
  8
0
100
AcDbBlockBegin
  2
*Paper_Space
 70
    0
 10
0
 20
0
 30
0
  3
*Paper_Space
  1

  0
ENDBLK
  5
1D
330
1F
100
AcDbEntity
  8
0
100
AcDbBlockEnd
  0
BLOCK
  5
50
330
4F
100
AcDbEntity
  8
0
100
AcDbBlockBegin
  2
*D3
 70
    1
 10
0
 20
0
  3
*D3
  1

  0
LINE
  5
58
100
AcDbEntity
  8
Dimensions
  6
ByBlock
 62
    0
370
   -2
100
AcDbLine
 10
260
 20
-5.000004999999987
 11
260
 21
328.559349
  0
SOLID
  5
59
100
AcDbEntity
  8
Dimensions
  6
ByBlock
 62
    0
370
   -2
100
AcDbTrace
 10
260
 20
-5.000004999999987
 30
0
 11
259.5837153422272
 21
-2.500004999999987
 31
0
 12
260.4162846577728
 22
-2.500004999999987
 32
0
 13
260.4162846577728
 23
-2.500004999999987
 33
0
  0
SOLID
  5
5A
100
AcDbEntity
  8
Dimensions
  6
ByBlock
 62
    0
370
   -2
100
AcDbTrace
 10
260
 20
328.559349
 30
0
 11
260.4162846577728
 21
326.059349
 31
0
 12
259.5837153422272
 22
326.059349
 32
0
 13
259.5837153422272
 23
326.059349
 33
0
  0
MTEXT
  5
5B
100
AcDbEntity
  8
Dimensions
  6
CONTINUOUS
 62
    0
370
   -2
100
AcDbMText
 10
258.125
 20
161.779672
 30
0
 40
2.5
 41
13.88888888888967
 71
    5
 72
    1
  1
333.5594
  7
standard
210
0
220
0
230
1
 50
90
 73
    2
 44
1
  0
LINE
  5
5C
100
AcDbEntity
  8
Dimensions
  6
ByBlock
 62
    0
370
   -2
100
AcDbLine
 10
225.625
 20
-5.000005
 11
261.25
 21
-5.000004999999987
  0
LINE
  5
5D
100
AcDbEntity
  8
Dimensions
  6
ByBlock
 62
    0
370
   -2
100
AcDbLine
 10
219.757878
 20
328.559349
 11
261.25
 21
328.559349
  0
ENDBLK
  5
51
330
4F
100
AcDbEntity
  8
0
100
AcDbBlockEnd
  0
BLOCK
  5
53
330
52
100
AcDbEntity
  8
0
100
AcDbBlockBegin
  2
*D1
 70
    1
 10
0
 20
0
  3
*D1
  1

  0
LINE
  5
5E
100
AcDbEntity
  8
Dimensions
  6
ByBlock
 62
    0
370
   -2
100
AcDbLine
 10
0.1328790000000595
 20
380
 11
230.132879
 21
380
  0
SOLID
  5
5F
100
AcDbEntity
  8
Dimensions
  6
ByBlock
 62
    0
370
   -2
100
AcDbTrace
 10
0.1328790000000595
 20
380
 30
0
 11
2.632879000000059
 21
380.4162846577728
 31
0
 12
2.632879000000059
 22
379.5837153422272
 32
0
 13
2.632879000000059
 23
379.5837153422272
 33
0
  0
SOLID
  5
60
100
AcDbEntity
  8
Dimensions
  6
ByBlock
 62
    0
370
   -2
100
AcDbTrace
 10
230.132879
 20
380
 30
0
 11
227.632879
 21
379.5837153422272
 31
0
 12
227.632879
 22
380.4162846577728
 32
0
 13
227.632879
 23
380.4162846577728
 33
0
  0
MTEXT
  5
61
100
AcDbEntity
  8
Dimensions
  6
CONTINUOUS
 62
    0
370
   -2
100
AcDbMText
 10
115.132879
 20
381.875
 30
0
 40
2.5
 41
13.61111111111127
 71
    5
 72
    1
  1
230.0000
  7
standard
210
0
220
0
230
1
 50
0
 73
    2
 44
1
  0
LINE
  5
62
100
AcDbEntity
  8
Dimensions
  6
ByBlock
 62
    0
370
   -2
100
AcDbLine
 10
0.1328790000000174
 20
318.185703
 11
0.1328790000000604
 21
381.25
  0
LINE
  5
63
100
AcDbEntity
  8
Dimensions
  6
ByBlock
 62
    0
370
   -2
100
AcDbLine
 10
230.132879
 20
318.184348
 11
230.132879
 21
381.25
  0
ENDBLK
  5
54
330
52
100
AcDbEntity
  8
0
100
AcDbBlockEnd
  0
BLOCK
  5
56
330
55
100
AcDbEntity
  8
0
100
AcDbBlockBegin
  2
*D2
 70
    1
 10
0
 20
0
  3
*D2
  1

  0
LINE
  5
64
100
AcDbEntity
  8
Dimensions
  6
ByBlock
 62
    0
370
   -2
100
AcDbLine
 10
-29.99999999999999
 20
328.559349
 11
-30.00000000000002
 21
-5.000004999999997
  0
SOLID
  5
65
100
AcDbEntity
  8
Dimensions
  6
ByBlock
 62
    0
370
   -2
100
AcDbTrace
 10
-29.99999999999999
 20
328.559349
 30
0
 11
-29.58371534222715
 21
326.059349
 31
0
 12
-30.41628465777283
 22
326.059349
 32
0
 13
-30.41628465777283
 23
326.059349
 33
0
  0
SOLID
  5
66
100
AcDbEntity
  8
Dimensions
  6
ByBlock
 62
    0
370
   -2
100
AcDbTrace
 10
-30.00000000000002
 20
-5.000004999999997
 30
0
 11
-30.41628465777286
 21
-2.500004999999997
 31
0
 12
-29.58371534222718
 22
-2.500004999999997
 32
0
 13
-29.58371534222718
 23
-2.500004999999997
 33
0
  0
MTEXT
  5
67
100
AcDbEntity
  8
Dimensions
  6
CONTINUOUS
 62
    0
370
   -2
100
AcDbMText
 10
-31.87500000000001
 20
161.779672
 30
0
 40
2.5
 41
13.88888888888967
 71
    5
 72
    1
  1
333.5594
  7
standard
210
0
220
0
230
1
 50
90
 73
    2
 44
1
  0
LINE
  5
68
100
AcDbEntity
  8
Dimensions
  6
ByBlock
 62
    0
370
   -2
100
AcDbLine
 10
10.507879
 20
328.559349
 11
-31.24999999999999
 21
328.559349
  0
LINE
  5
69
100
AcDbEntity
  8
Dimensions
  6
ByBlock
 62
    0
370
   -2
100
AcDbLine
 10
4.375001
 20
-5.000005
 11
-31.25000000000002
 21
-5.000004999999997
  0
ENDBLK
  5
57
330
55
100
AcDbEntity
  8
0
100
AcDbBlockEnd
  0
ENDSEC
  0
SECTION
  2
ENTITIES
  0
SPLINE
  5
6A
100
AcDbEntity
  8
Layer_1
  6
ByLayer
 62
    7
370
   -1
100
AcDbSpline
210
0
220
0
230
0
 70
    8
 71
    3
 72
    8
 73
    4
 74
    0
 42
1e-007
 43
1e-007
 40
0
 40
0
 40
0
 40
0
 40
1
 40
1
 40
1
 40
1
 10
13.417412
 20
2.00001
 30
0
 10
13.417408
 20
0.927799
 30
0
 10
12.548208
 20
0.058602
 30
0
 10
11.475997
 20
0.058603
 30
0
  0
SPLINE
  5
6B
100
AcDbEntity
  8
Layer_1
  6
ByLayer
 62
    7
370
   -1
100
AcDbSpline
210
0
220
0
230
0
 70
    8
 71
    3
 72
    8
 73
    4
 74
    0
 42
1e-007
 43
1e-007
 40
0
 40
0
 40
0
 40
0
 40
1
 40
1
 40
1
 40
1
 10
11.475997
 20
0.058603
 30
0
 10
10.403785
 20
0.058602
 30
0
 10
9.534585
 20
0.927799
 30
0
 10
9.534580999999999
 20
2.00001
 30
0
  0
SPLINE
  5
6C
100
AcDbEntity
  8
Layer_1
  6
ByLayer
 62
    7
370
   -1
100
AcDbSpline
210
0
220
0
230
0
 70
    8
 71
    3
 72
    8
 73
    4
 74
    0
 42
1e-007
 43
1e-007
 40
0
 40
0
 40
0
 40
0
 40
1
 40
1
 40
1
 40
1
 10
9.534580999999999
 20
2.00001
 30
0
 10
9.534575999999999
 20
2.514909
 30
0
 10
9.739114000000001
 20
3.00872
 30
0
 10
10.103201
 20
3.372811
 30
0
  0
SPLINE
  5
6D
100
AcDbEntity
  8
Layer_1
  6
ByLayer
 62
    7
370
   -1
100
AcDbSpline
210
0
220
0
230
0
 70
    8
 71
    3
 72
    8
 73
    4
 74
    0
 42
1e-007
 43
1e-007
 40
0
 40
0
 40
0
 40
0
 40
1
 40
1
 40
1
 40
1
 10
10.103201
 20
3.372811
 30
0
 10
10.467288
 20
3.736901
 30
0
 10
10.961098
 20
3.941445
 30
0
 10
11.475997
 20
3.941445
 30
0
  0
SPLINE
  5
6E
100
AcDbEntity
  8
Layer_1
  6
ByLayer
 62
    7
370
   -1
100
AcDbSpline
210
0
220
0
230
0
 70
    8
 71
    3
 72
    8
 73
    4
 74
    0
 42
1e-007
 43
1e-007
 40
0
 40
0
 40
0
 40
0
 40
1
 40
1
 40
1
 40
1
 10
11.475997
 20
3.941445
 30
0
 10
11.990896
 20
3.941445
 30
0
 10
12.484705
 20
3.736901
 30
0
 10
12.848792
 20
3.372811
 30
0
  0
SPLINE
  5
6F
100
AcDbEntity
  8
Layer_1
  6
ByLayer
 62
    7
370
   -1
100
AcDbSpline
210
0
220
0
230
0
 70
    8
 71
    3
 72
    8
 73
    4
 74
    0
 42
1e-007
 43
1e-007
 40
0
 40
0
 40
0
 40
0
 40
1
 40
1
 40
1
 40
1
 10
12.848792
 20
3.372811
 30
0
 10
13.212879
 20
3.00872
 30
0
 10
13.417418
 20
2.514909
 30
0
 10
13.417412
 20
2.00001
 30
0
  0
SPLINE
  5
70
100
AcDbEntity
  8
Layer_1
  6
ByLayer
 62
    7
370
   -1
100
AcDbSpline
210
0
220
0
230
0
 70
    8
 71
    3
 72
    8
 73
    4
 74
    0
 42
1e-007
 43
1e-007
 40
0
 40
0
 40
0
 40
0
 40
1
 40
1
 40
1
 40
1
 10
221.417437
 20
2.00001
 30
0
 10
221.417433
 20
0.9278
 30
0
 10
220.548234
 20
0.058603
 30
0
 10
219.476024
 20
0.058603
 30
0
  0
SPLINE
  5
71
100
AcDbEntity
  8
Layer_1
  6
ByLayer
 62
    7
370
   -1
100
AcDbSpline
210
0
220
0
230
0
 70
    8
 71
    3
 72
    8
 73
    4
 74
    0
 42
1e-007
 43
1e-007
 40
0
 40
0
 40
0
 40
0
 40
1
 40
1
 40
1
 40
1
 10
219.476024
 20
0.058603
 30
0
 10
218.403812
 20
0.058602
 30
0
 10
217.534612
 20
0.927799
 30
0
 10
217.534609
 20
2.00001
 30
0
  0
SPLINE
  5
72
100
AcDbEntity
  8
Layer_1
  6
ByLayer
 62
    7
370
   -1
100
AcDbSpline
210
0
220
0
230
0
 70
    8
 71
    3
 72
    8
 73
    4
 74
    0
 42
1e-007
 43
1e-007
 40
0
 40
0
 40
0
 40
0
 40
1
 40
1
 40
1
 40
1
 10
217.534609
 20
2.00001
 30
0
 10
217.534603
 20
2.514909
 30
0
 10
217.739142
 20
3.00872
 30
0
 10
218.103228
 20
3.372811
 30
0
  0
SPLINE
  5
73
100
AcDbEntity
  8
Layer_1
  6
ByLayer
 62
    7
370
   -1
100
AcDbSpline
210
0
220
0
230
0
 70
    8
 71
    3
 72
    8
 73
    4
 74
    0
 42
1e-007
 43
1e-007
 40
0
 40
0
 40
0
 40
0
 40
1
 40
1
 40
1
 40
1
 10
218.103228
 20
3.372811
 30
0
 10
218.467315
 20
3.736901
 30
0
 10
218.961125
 20
3.941445
 30
0
 10
219.476024
 20
3.941445
 30
0
  0
SPLINE
  5
74
100
AcDbEntity
  8
Layer_1
  6
ByLayer
 62
    7
370
   -1
100
AcDbSpline
210
0
220
0
230
0
 70
    8
 71
    3
 72
    8
 73
    4
 74
    0
 42
1e-007
 43
1e-007
 40
0
 40
0
 40
0
 40
0
 40
1
 40
1
 40
1
 40
1
 10
219.476024
 20
3.941445
 30
0
 10
219.990922
 20
3.941445
 30
0
 10
220.484732
 20
3.7369
 30
0
 10
220.848818
 20
3.37281
 30
0
  0
SPLINE
  5
75
100
AcDbEntity
  8
Layer_1
  6
ByLayer
 62
    7
370
   -1
100
AcDbSpline
210
0
220
0
230
0
 70
    8
 71
    3
 72
    8
 73
    4
 74
    0
 42
1e-007
 43
1e-007
 40
0
 40
0
 40
0
 40
0
 40
1
 40
1
 40
1
 40
1
 10
220.848818
 20
3.37281
 30
0
 10
221.212904
 20
3.00872
 30
0
 10
221.417443
 20
2.514908
 30
0
 10
221.417437
 20
2.00001
 30
0
  0
LWPOLYLINE
  5
76
100
AcDbEntity
  8
Layer_1
  6
ByLayer
 62
    7
370
   -1
100
AcDbPolyline
 90
    2
 70
    1
 43
0
 10
13.417412
 20
2.00001
 10
13.417412
 20
2.00001
  0
SPLINE
  5
77
100
AcDbEntity
  8
Layer_1
  6
ByLayer
 62
    7
370
   -1
100
AcDbSpline
210
0
220
0
230
0
 70
    8
 71
    3
 72
    8
 73
    4
 74
    0
 42
1e-007
 43
1e-007
 40
0
 40
0
 40
0
 40
0
 40
1
 40
1
 40
1
 40
1
 10
13.417412
 20
316.00002
 30
0
 10
13.417413
 20
315.485125
 30
0
 10
13.212872
 20
314.991318
 30
0
 10
12.848786
 20
314.627231
 30
0
  0
SPLINE
  5
78
100
AcDbEntity
  8
Layer_1
  6
ByLayer
 62
    7
370
   -1
100
AcDbSpline
210
0
220
0
230
0
 70
    8
 71
    3
 72
    8
 73
    4
 74
    0
 42
1e-007
 43
1e-007
 40
0
 40
0
 40
0
 40
0
 40
1
 40
1
 40
1
 40
1
 10
12.848786
 20
314.627231
 30
0
 10
12.484699
 20
314.263145
 30
0
 10
11.990892
 20
314.058603
 30
0
 10
11.475997
 20
314.058604
 30
0
  0
SPLINE
  5
79
100
AcDbEntity
  8
Layer_1
  6
ByLayer
 62
    7
370
   -1
100
AcDbSpline
210
0
220
0
230
0
 70
    8
 71
    3
 72
    8
 73
    4
 74
    0
 42
1e-007
 43
1e-007
 40
0
 40
0
 40
0
 40
0
 40
1
 40
1
 40
1
 40
1
 10
11.475997
 20
314.058604
 30
0
 10
10.961101
 20
314.058603
 30
0
 10
10.467294
 20
314.263145
 30
0
 10
10.103208
 20
314.627231
 30
0
  0
SPLINE
  5
7A
100
AcDbEntity
  8
Layer_1
  6
ByLayer
 62
    7
370
   -1
100
AcDbSpline
210
0
220
0
230
0
 70
    8
 71
    3
 72
    8
 73
    4
 74
    0
 42
1e-007
 43
1e-007
 40
0
 40
0
 40
0
 40
0
 40
1
 40
1
 40
1
 40
1
 10
10.103208
 20
314.627231
 30
0
 10
9.739121000000001
 20
314.991318
 30
0
 10
9.53458
 20
315.485125
 30
0
 10
9.534580999999999
 20
316.00002
 30
0
  0
SPLINE
  5
7B
100
AcDbEntity
  8
Layer_1
  6
ByLayer
 62
    7
370
   -1
100
AcDbSpline
210
0
220
0
230
0
 70
    8
 71
    3
 72
    8
 73
    4
 74
    0
 42
1e-007
 43
1e-007
 40
0
 40
0
 40
0
 40
0
 40
1
 40
1
 40
1
 40
1
 10
9.534580999999999
 20
316.00002
 30
0
 10
9.534582
 20
316.514915
 30
0
 10
9.739122999999999
 20
317.008721
 30
0
 10
10.103209
 20
317.372806
 30
0
  0
SPLINE
  5
7C
100
AcDbEntity
  8
Layer_1
  6
ByLayer
 62
    7
370
   -1
100
AcDbSpline
210
0
220
0
230
0
 70
    8
 71
    3
 72
    8
 73
    4
 74
    0
 42
1e-007
 43
1e-007
 40
0
 40
0
 40
0
 40
0
 40
1
 40
1
 40
1
 40
1
 10
10.103209
 20
317.372806
 30
0
 10
10.467295
 20
317.736892
 30
0
 10
10.961102
 20
317.941432
 30
0
 10
11.475997
 20
317.941432
 30
0
  0
SPLINE
  5
7D
100
AcDbEntity
  8
Layer_1
  6
ByLayer
 62
    7
370
   -1
100
AcDbSpline
210
0
220
0
230
0
 70
    8
 71
    3
 72
    8
 73
    4
 74
    0
 42
1e-007
 43
1e-007
 40
0
 40
0
 40
0
 40
0
 40
1
 40
1
 40
1
 40
1
 10
11.475997
 20
317.941432
 30
0
 10
11.990891
 20
317.941432
 30
0
 10
12.484698
 20
317.736892
 30
0
 10
12.848784
 20
317.372806
 30
0
  0
SPLINE
  5
7E
100
AcDbEntity
  8
Layer_1
  6
ByLayer
 62
    7
370
   -1
100
AcDbSpline
210
0
220
0
230
0
 70
    8
 71
    3
 72
    8
 73
    4
 74
    0
 42
1e-007
 43
1e-007
 40
0
 40
0
 40
0
 40
0
 40
1
 40
1
 40
1
 40
1
 10
12.848784
 20
317.372806
 30
0
 10
13.21287
 20
317.008721
 30
0
 10
13.417411
 20
316.514915
 30
0
 10
13.417412
 20
316.00002
 30
0
  0
LWPOLYLINE
  5
7F
100
AcDbEntity
  8
Layer_1
  6
ByLayer
 62
    7
370
   -1
100
AcDbPolyline
 90
    2
 70
    1
 43
0
 10
221.417437
 20
2.00001
 10
221.417437
 20
2.00001
  0
SPLINE
  5
80
100
AcDbEntity
  8
Layer_1
  6
ByLayer
 62
    7
370
   -1
100
AcDbSpline
210
0
220
0
230
0
 70
    8
 71
    3
 72
    8
 73
    4
 74
    0
 42
1e-007
 43
1e-007
 40
0
 40
0
 40
0
 40
0
 40
1
 40
1
 40
1
 40
1
 10
221.417437
 20
316.00002
 30
0
 10
221.417438
 20
315.485125
 30
0
 10
221.212897
 20
314.991318
 30
0
 10
220.848811
 20
314.627232
 30
0
  0
SPLINE
  5
81
100
AcDbEntity
  8
Layer_1
  6
ByLayer
 62
    7
370
   -1
100
AcDbSpline
210
0
220
0
230
0
 70
    8
 71
    3
 72
    8
 73
    4
 74
    0
 42
1e-007
 43
1e-007
 40
0
 40
0
 40
0
 40
0
 40
1
 40
1
 40
1
 40
1
 10
220.848811
 20
314.627232
 30
0
 10
220.484726
 20
314.263146
 30
0
 10
219.990919
 20
314.058604
 30
0
 10
219.476024
 20
314.058604
 30
0
  0
SPLINE
  5
82
100
AcDbEntity
  8
Layer_1
  6
ByLayer
 62
    7
370
   -1
100
AcDbSpline
210
0
220
0
230
0
 70
    8
 71
    3
 72
    8
 73
    4
 74
    0
 42
1e-007
 43
1e-007
 40
0
 40
0
 40
0
 40
0
 40
1
 40
1
 40
1
 40
1
 10
219.476024
 20
314.058604
 30
0
 10
218.961128
 20
314.058603
 30
0
 10
218.467321
 20
314.263145
 30
0
 10
218.103235
 20
314.627231
 30
0
  0
SPLINE
  5
83
100
AcDbEntity
  8
Layer_1
  6
ByLayer
 62
    7
370
   -1
100
AcDbSpline
210
0
220
0
230
0
 70
    8
 71
    3
 72
    8
 73
    4
 74
    0
 42
1e-007
 43
1e-007
 40
0
 40
0
 40
0
 40
0
 40
1
 40
1
 40
1
 40
1
 10
218.103235
 20
314.627231
 30
0
 10
217.739149
 20
314.991318
 30
0
 10
217.534608
 20
315.485125
 30
0
 10
217.534609
 20
316.00002
 30
0
  0
SPLINE
  5
84
100
AcDbEntity
  8
Layer_1
  6
ByLayer
 62
    7
370
   -1
100
AcDbSpline
210
0
220
0
230
0
 70
    8
 71
    3
 72
    8
 73
    4
 74
    0
 42
1e-007
 43
1e-007
 40
0
 40
0
 40
0
 40
0
 40
1
 40
1
 40
1
 40
1
 10
217.534609
 20
316.00002
 30
0
 10
217.534609
 20
316.514915
 30
0
 10
217.73915
 20
317.008721
 30
0
 10
218.103236
 20
317.372806
 30
0
  0
SPLINE
  5
85
100
AcDbEntity
  8
Layer_1
  6
ByLayer
 62
    7
370
   -1
100
AcDbSpline
210
0
220
0
230
0
 70
    8
 71
    3
 72
    8
 73
    4
 74
    0
 42
1e-007
 43
1e-007
 40
0
 40
0
 40
0
 40
0
 40
1
 40
1
 40
1
 40
1
 10
218.103236
 20
317.372806
 30
0
 10
218.467322
 20
317.736892
 30
0
 10
218.961129
 20
317.941432
 30
0
 10
219.476024
 20
317.941432
 30
0
  0
SPLINE
  5
86
100
AcDbEntity
  8
Layer_1
  6
ByLayer
 62
    7
370
   -1
100
AcDbSpline
210
0
220
0
230
0
 70
    8
 71
    3
 72
    8
 73
    4
 74
    0
 42
1e-007
 43
1e-007
 40
0
 40
0
 40
0
 40
0
 40
1
 40
1
 40
1
 40
1
 10
219.476024
 20
317.941432
 30
0
 10
220.548236
 20
317.941432
 30
0
 10
221.417436
 20
317.072232
 30
0
 10
221.417437
 20
316.00002
 30
0
  0
LWPOLYLINE
  5
87
100
AcDbEntity
  8
Layer_1
  6
ByLayer
 62
    7
370
   -1
100
AcDbPolyline
 90
    2
 70
    1
 43
0
 10
13.417412
 20
316.00002
 10
13.417412
 20
316.00002
  0
SPLINE
  5
88
100
AcDbEntity
  8
Layer_1
  6
ByLayer
 62
    7
370
   -1
100
AcDbSpline
210
0
220
0
230
0
 70
    8
 71
    3
 72
    8
 73
    4
 74
    0
 42
1e-007
 43
1e-007
 40
0
 40
0
 40
0
 40
0
 40
1
 40
1
 40
1
 40
1
 10
49.167426
 20
98.61335200000001
 30
0
 10
49.167427
 20
98.098457
 30
0
 10
48.962886
 20
97.60465000000001
 30
0
 10
48.5988
 20
97.24056400000001
 30
0
  0
SPLINE
  5
89
100
AcDbEntity
  8
Layer_1
  6
ByLayer
 62
    7
370
   -1
100
AcDbSpline
210
0
220
0
230
0
 70
    8
 71
    3
 72
    8
 73
    4
 74
    0
 42
1e-007
 43
1e-007
 40
0
 40
0
 40
0
 40
0
 40
1
 40
1
 40
1
 40
1
 10
48.5988
 20
97.24056400000001
 30
0
 10
48.234714
 20
96.87647800000001
 30
0
 10
47.740907
 20
96.671936
 30
0
 10
47.226011
 20
96.671937
 30
0
  0
SPLINE
  5
8A
100
AcDbEntity
  8
Layer_1
  6
ByLayer
 62
    7
370
   -1
100
AcDbSpline
210
0
220
0
230
0
 70
    8
 71
    3
 72
    8
 73
    4
 74
    0
 42
1e-007
 43
1e-007
 40
0
 40
0
 40
0
 40
0
 40
1
 40
1
 40
1
 40
1
 10
47.226011
 20
96.671937
 30
0
 10
46.711116
 20
96.671936
 30
0
 10
46.217309
 20
96.87647800000001
 30
0
 10
45.853223
 20
97.24056400000001
 30
0
  0
SPLINE
  5
8B
100
AcDbEntity
  8
Layer_1
  6
ByLayer
 62
    7
370
   -1
100
AcDbSpline
210
0
220
0
230
0
 70
    8
 71
    3
 72
    8
 73
    4
 74
    0
 42
1e-007
 43
1e-007
 40
0
 40
0
 40
0
 40
0
 40
1
 40
1
 40
1
 40
1
 10
45.853223
 20
97.24056400000001
 30
0
 10
45.489137
 20
97.60465000000001
 30
0
 10
45.284595
 20
98.098457
 30
0
 10
45.284596
 20
98.61335200000001
 30
0
  0
SPLINE
  5
8C
100
AcDbEntity
  8
Layer_1
  6
ByLayer
 62
    7
370
   -1
100
AcDbSpline
210
0
220
0
230
0
 70
    8
 71
    3
 72
    8
 73
    4
 74
    0
 42
1e-007
 43
1e-007
 40
0
 40
0
 40
0
 40
0
 40
1
 40
1
 40
1
 40
1
 10
45.284596
 20
98.61335200000001
 30
0
 10
45.284596
 20
99.128247
 30
0
 10
45.489138
 20
99.62205299999999
 30
0
 10
45.853224
 20
99.986138
 30
0
  0
SPLINE
  5
8D
100
AcDbEntity
  8
Layer_1
  6
ByLayer
 62
    7
370
   -1
100
AcDbSpline
210
0
220
0
230
0
 70
    8
 71
    3
 72
    8
 73
    4
 74
    0
 42
1e-007
 43
1e-007
 40
0
 40
0
 40
0
 40
0
 40
1
 40
1
 40
1
 40
1
 10
45.853224
 20
99.986138
 30
0
 10
46.21731
 20
100.350224
 30
0
 10
46.711116
 20
100.554765
 30
0
 10
47.226011
 20
100.554764
 30
0
  0
SPLINE
  5
8E
100
AcDbEntity
  8
Layer_1
  6
ByLayer
 62
    7
370
   -1
100
AcDbSpline
210
0
220
0
230
0
 70
    8
 71
    3
 72
    8
 73
    4
 74
    0
 42
1e-007
 43
1e-007
 40
0
 40
0
 40
0
 40
0
 40
1
 40
1
 40
1
 40
1
 10
47.226011
 20
100.554764
 30
0
 10
47.740906
 20
100.554765
 30
0
 10
48.234713
 20
100.350224
 30
0
 10
48.598799
 20
99.986138
 30
0
  0
SPLINE
  5
8F
100
AcDbEntity
  8
Layer_1
  6
ByLayer
 62
    7
370
   -1
100
AcDbSpline
210
0
220
0
230
0
 70
    8
 71
    3
 72
    8
 73
    4
 74
    0
 42
1e-007
 43
1e-007
 40
0
 40
0
 40
0
 40
0
 40
1
 40
1
 40
1
 40
1
 10
48.598799
 20
99.986138
 30
0
 10
48.962885
 20
99.62205299999999
 30
0
 10
49.167426
 20
99.128247
 30
0
 10
49.167426
 20
98.61335200000001
 30
0
  0
LWPOLYLINE
  5
90
100
AcDbEntity
  8
Layer_1
  6
ByLayer
 62
    7
370
   -1
100
AcDbPolyline
 90
    2
 70
    1
 43
0
 10
221.417437
 20
316.00002
 10
221.417437
 20
316.00002
  0
SPLINE
  5
91
100
AcDbEntity
  8
Layer_1
  6
ByLayer
 62
    7
370
   -1
100
AcDbSpline
210
0
220
0
230
0
 70
    8
 71
    3
 72
    8
 73
    4
 74
    0
 42
1e-007
 43
1e-007
 40
0
 40
0
 40
0
 40
0
 40
1
 40
1
 40
1
 40
1
 10
189.167429
 20
98.61335200000001
 30
0
 10
189.167429
 20
98.098457
 30
0
 10
188.962888
 20
97.60465000000001
 30
0
 10
188.598803
 20
97.24056400000001
 30
0
  0
SPLINE
  5
92
100
AcDbEntity
  8
Layer_1
  6
ByLayer
 62
    7
370
   -1
100
AcDbSpline
210
0
220
0
230
0
 70
    8
 71
    3
 72
    8
 73
    4
 74
    0
 42
1e-007
 43
1e-007
 40
0
 40
0
 40
0
 40
0
 40
1
 40
1
 40
1
 40
1
 10
188.598803
 20
97.24056400000001
 30
0
 10
188.234717
 20
96.87647800000001
 30
0
 10
187.740911
 20
96.671937
 30
0
 10
187.226016
 20
96.671937
 30
0
  0
SPLINE
  5
93
100
AcDbEntity
  8
Layer_1
  6
ByLayer
 62
    7
370
   -1
100
AcDbSpline
210
0
220
0
230
0
 70
    8
 71
    3
 72
    8
 73
    4
 74
    0
 42
1e-007
 43
1e-007
 40
0
 40
0
 40
0
 40
0
 40
1
 40
1
 40
1
 40
1
 10
187.226016
 20
96.671937
 30
0
 10
186.711121
 20
96.671936
 30
0
 10
186.217314
 20
96.87647699999999
 30
0
 10
185.853228
 20
97.24056299999999
 30
0
  0
SPLINE
  5
94
100
AcDbEntity
  8
Layer_1
  6
ByLayer
 62
    7
370
   -1
100
AcDbSpline
210
0
220
0
230
0
 70
    8
 71
    3
 72
    8
 73
    4
 74
    0
 42
1e-007
 43
1e-007
 40
0
 40
0
 40
0
 40
0
 40
1
 40
1
 40
1
 40
1
 10
185.853228
 20
97.24056299999999
 30
0
 10
185.489142
 20
97.60464899999999
 30
0
 10
185.284601
 20
98.098456
 30
0
 10
185.284601
 20
98.61335200000001
 30
0
  0
SPLINE
  5
95
100
AcDbEntity
  8
Layer_1
  6
ByLayer
 62
    7
370
   -1
100
AcDbSpline
210
0
220
0
230
0
 70
    8
 71
    3
 72
    8
 73
    4
 74
    0
 42
1e-007
 43
1e-007
 40
0
 40
0
 40
0
 40
0
 40
1
 40
1
 40
1
 40
1
 10
185.284601
 20
98.61335200000001
 30
0
 10
185.284601
 20
99.128247
 30
0
 10
185.489142
 20
99.62205400000001
 30
0
 10
185.853228
 20
99.98614000000001
 30
0
  0
SPLINE
  5
96
100
AcDbEntity
  8
Layer_1
  6
ByLayer
 62
    7
370
   -1
100
AcDbSpline
210
0
220
0
230
0
 70
    8
 71
    3
 72
    8
 73
    4
 74
    0
 42
1e-007
 43
1e-007
 40
0
 40
0
 40
0
 40
0
 40
1
 40
1
 40
1
 40
1
 10
185.853228
 20
99.98614000000001
 30
0
 10
186.217314
 20
100.350226
 30
0
 10
186.711121
 20
100.554768
 30
0
 10
187.226016
 20
100.554767
 30
0
  0
SPLINE
  5
97
100
AcDbEntity
  8
Layer_1
  6
ByLayer
 62
    7
370
   -1
100
AcDbSpline
210
0
220
0
230
0
 70
    8
 71
    3
 72
    8
 73
    4
 74
    0
 42
1e-007
 43
1e-007
 40
0
 40
0
 40
0
 40
0
 40
1
 40
1
 40
1
 40
1
 10
187.226016
 20
100.554767
 30
0
 10
187.740911
 20
100.554767
 30
0
 10
188.234717
 20
100.350225
 30
0
 10
188.598803
 20
99.98613899999999
 30
0
  0
SPLINE
  5
98
100
AcDbEntity
  8
Layer_1
  6
ByLayer
 62
    7
370
   -1
100
AcDbSpline
210
0
220
0
230
0
 70
    8
 71
    3
 72
    8
 73
    4
 74
    0
 42
1e-007
 43
1e-007
 40
0
 40
0
 40
0
 40
0
 40
1
 40
1
 40
1
 40
1
 10
188.598803
 20
99.98613899999999
 30
0
 10
188.962888
 20
99.62205299999999
 30
0
 10
189.167429
 20
99.128247
 30
0
 10
189.167429
 20
98.61335200000001
 30
0
  0
LWPOLYLINE
  5
99
100
AcDbEntity
  8
Layer_1
  6
ByLayer
 62
    7
370
   -1
100
AcDbPolyline
 90
    2
 70
    1
 43
0
 10
49.167426
 20
98.61335200000001
 10
49.167426
 20
98.61335200000001
  0
SPLINE
  5
9A
100
AcDbEntity
  8
Layer_1
  6
ByLayer
 62
    7
370
   -1
100
AcDbSpline
210
0
220
0
230
0
 70
    8
 71
    3
 72
    8
 73
    4
 74
    0
 42
1e-007
 43
1e-007
 40
0
 40
0
 40
0
 40
0
 40
1
 40
1
 40
1
 40
1
 10
189.167431
 20
201.613352
 30
0
 10
189.167432
 20
201.098457
 30
0
 10
188.962891
 20
200.60465
 30
0
 10
188.598805
 20
200.240564
 30
0
  0
SPLINE
  5
9B
100
AcDbEntity
  8
Layer_1
  6
ByLayer
 62
    7
370
   -1
100
AcDbSpline
210
0
220
0
230
0
 70
    8
 71
    3
 72
    8
 73
    4
 74
    0
 42
1e-007
 43
1e-007
 40
0
 40
0
 40
0
 40
0
 40
1
 40
1
 40
1
 40
1
 10
188.598805
 20
200.240564
 30
0
 10
188.234719
 20
199.876478
 30
0
 10
187.740912
 20
199.671936
 30
0
 10
187.226016
 20
199.671937
 30
0
  0
SPLINE
  5
9C
100
AcDbEntity
  8
Layer_1
  6
ByLayer
 62
    7
370
   -1
100
AcDbSpline
210
0
220
0
230
0
 70
    8
 71
    3
 72
    8
 73
    4
 74
    0
 42
1e-007
 43
1e-007
 40
0
 40
0
 40
0
 40
0
 40
1
 40
1
 40
1
 40
1
 10
187.226016
 20
199.671937
 30
0
 10
186.711121
 20
199.671936
 30
0
 10
186.217314
 20
199.876478
 30
0
 10
185.853228
 20
200.240564
 30
0
  0
SPLINE
  5
9D
100
AcDbEntity
  8
Layer_1
  6
ByLayer
 62
    7
370
   -1
100
AcDbSpline
210
0
220
0
230
0
 70
    8
 71
    3
 72
    8
 73
    4
 74
    0
 42
1e-007
 43
1e-007
 40
0
 40
0
 40
0
 40
0
 40
1
 40
1
 40
1
 40
1
 10
185.853228
 20
200.240564
 30
0
 10
185.489142
 20
200.60465
 30
0
 10
185.2846
 20
201.098457
 30
0
 10
185.284601
 20
201.613352
 30
0
  0
SPLINE
  5
9E
100
AcDbEntity
  8
Layer_1
  6
ByLayer
 62
    7
370
   -1
100
AcDbSpline
210
0
220
0
230
0
 70
    8
 71
    3
 72
    8
 73
    4
 74
    0
 42
1e-007
 43
1e-007
 40
0
 40
0
 40
0
 40
0
 40
1
 40
1
 40
1
 40
1
 10
185.284601
 20
201.613352
 30
0
 10
185.284601
 20
202.128247
 30
0
 10
185.489143
 20
202.622053
 30
0
 10
185.853229
 20
202.986138
 30
0
  0
SPLINE
  5
9F
100
AcDbEntity
  8
Layer_1
  6
ByLayer
 62
    7
370
   -1
100
AcDbSpline
210
0
220
0
230
0
 70
    8
 71
    3
 72
    8
 73
    4
 74
    0
 42
1e-007
 43
1e-007
 40
0
 40
0
 40
0
 40
0
 40
1
 40
1
 40
1
 40
1
 10
185.853229
 20
202.986138
 30
0
 10
186.217315
 20
203.350224
 30
0
 10
186.711121
 20
203.554765
 30
0
 10
187.226016
 20
203.554764
 30
0
  0
SPLINE
  5
A0
100
AcDbEntity
  8
Layer_1
  6
ByLayer
 62
    7
370
   -1
100
AcDbSpline
210
0
220
0
230
0
 70
    8
 71
    3
 72
    8
 73
    4
 74
    0
 42
1e-007
 43
1e-007
 40
0
 40
0
 40
0
 40
0
 40
1
 40
1
 40
1
 40
1
 10
187.226016
 20
203.554764
 30
0
 10
187.740911
 20
203.554765
 30
0
 10
188.234718
 20
203.350224
 30
0
 10
188.598804
 20
202.986138
 30
0
  0
SPLINE
  5
A1
100
AcDbEntity
  8
Layer_1
  6
ByLayer
 62
    7
370
   -1
100
AcDbSpline
210
0
220
0
230
0
 70
    8
 71
    3
 72
    8
 73
    4
 74
    0
 42
1e-007
 43
1e-007
 40
0
 40
0
 40
0
 40
0
 40
1
 40
1
 40
1
 40
1
 10
188.598804
 20
202.986138
 30
0
 10
188.96289
 20
202.622053
 30
0
 10
189.167431
 20
202.128247
 30
0
 10
189.167431
 20
201.613352
 30
0
  0
LWPOLYLINE
  5
A2
100
AcDbEntity
  8
Layer_1
  6
ByLayer
 62
    7
370
   -1
100
AcDbPolyline
 90
    2
 70
    1
 43
0
 10
189.167429
 20
98.61335200000001
 10
189.167429
 20
98.61335200000001
  0
SPLINE
  5
A3
100
AcDbEntity
  8
Layer_1
  6
ByLayer
 62
    7
370
   -1
100
AcDbSpline
210
0
220
0
230
0
 70
    8
 71
    3
 72
    8
 73
    4
 74
    0
 42
1e-007
 43
1e-007
 40
0
 40
0
 40
0
 40
0
 40
1
 40
1
 40
1
 40
1
 10
49.167426
 20
201.613352
 30
0
 10
49.167427
 20
201.098457
 30
0
 10
48.962886
 20
200.60465
 30
0
 10
48.5988
 20
200.240564
 30
0
  0
SPLINE
  5
A4
100
AcDbEntity
  8
Layer_1
  6
ByLayer
 62
    7
370
   -1
100
AcDbSpline
210
0
220
0
230
0
 70
    8
 71
    3
 72
    8
 73
    4
 74
    0
 42
1e-007
 43
1e-007
 40
0
 40
0
 40
0
 40
0
 40
1
 40
1
 40
1
 40
1
 10
48.5988
 20
200.240564
 30
0
 10
48.234714
 20
199.876478
 30
0
 10
47.740907
 20
199.671936
 30
0
 10
47.226011
 20
199.671937
 30
0
  0
SPLINE
  5
A5
100
AcDbEntity
  8
Layer_1
  6
ByLayer
 62
    7
370
   -1
100
AcDbSpline
210
0
220
0
230
0
 70
    8
 71
    3
 72
    8
 73
    4
 74
    0
 42
1e-007
 43
1e-007
 40
0
 40
0
 40
0
 40
0
 40
1
 40
1
 40
1
 40
1
 10
47.226011
 20
199.671937
 30
0
 10
46.711116
 20
199.671936
 30
0
 10
46.217309
 20
199.876478
 30
0
 10
45.853223
 20
200.240564
 30
0
  0
SPLINE
  5
A6
100
AcDbEntity
  8
Layer_1
  6
ByLayer
 62
    7
370
   -1
100
AcDbSpline
210
0
220
0
230
0
 70
    8
 71
    3
 72
    8
 73
    4
 74
    0
 42
1e-007
 43
1e-007
 40
0
 40
0
 40
0
 40
0
 40
1
 40
1
 40
1
 40
1
 10
45.853223
 20
200.240564
 30
0
 10
45.489137
 20
200.60465
 30
0
 10
45.284595
 20
201.098457
 30
0
 10
45.284596
 20
201.613352
 30
0
  0
SPLINE
  5
A7
100
AcDbEntity
  8
Layer_1
  6
ByLayer
 62
    7
370
   -1
100
AcDbSpline
210
0
220
0
230
0
 70
    8
 71
    3
 72
    8
 73
    4
 74
    0
 42
1e-007
 43
1e-007
 40
0
 40
0
 40
0
 40
0
 40
1
 40
1
 40
1
 40
1
 10
45.284596
 20
201.613352
 30
0
 10
45.284596
 20
202.128247
 30
0
 10
45.489138
 20
202.622053
 30
0
 10
45.853224
 20
202.986138
 30
0
  0
SPLINE
  5
A8
100
AcDbEntity
  8
Layer_1
  6
ByLayer
 62
    7
370
   -1
100
AcDbSpline
210
0
220
0
230
0
 70
    8
 71
    3
 72
    8
 73
    4
 74
    0
 42
1e-007
 43
1e-007
 40
0
 40
0
 40
0
 40
0
 40
1
 40
1
 40
1
 40
1
 10
45.853224
 20
202.986138
 30
0
 10
46.21731
 20
203.350224
 30
0
 10
46.711116
 20
203.554765
 30
0
 10
47.226011
 20
203.554764
 30
0
  0
SPLINE
  5
A9
100
AcDbEntity
  8
Layer_1
  6
ByLayer
 62
    7
370
   -1
100
AcDbSpline
210
0
220
0
230
0
 70
    8
 71
    3
 72
    8
 73
    4
 74
    0
 42
1e-007
 43
1e-007
 40
0
 40
0
 40
0
 40
0
 40
1
 40
1
 40
1
 40
1
 10
47.226011
 20
203.554764
 30
0
 10
47.740906
 20
203.554765
 30
0
 10
48.234713
 20
203.350224
 30
0
 10
48.598799
 20
202.986138
 30
0
  0
SPLINE
  5
AA
100
AcDbEntity
  8
Layer_1
  6
ByLayer
 62
    7
370
   -1
100
AcDbSpline
210
0
220
0
230
0
 70
    8
 71
    3
 72
    8
 73
    4
 74
    0
 42
1e-007
 43
1e-007
 40
0
 40
0
 40
0
 40
0
 40
1
 40
1
 40
1
 40
1
 10
48.598799
 20
202.986138
 30
0
 10
48.962885
 20
202.622053
 30
0
 10
49.167426
 20
202.128247
 30
0
 10
49.167426
 20
201.613352
 30
0
  0
LWPOLYLINE
  5
AB
100
AcDbEntity
  8
Layer_1
  6
ByLayer
 62
    7
370
   -1
100
AcDbPolyline
 90
    2
 70
    1
 43
0
 10
189.167431
 20
201.613352
 10
189.167431
 20
201.613352
  0
LWPOLYLINE
  5
AC
100
AcDbEntity
  8
Layer_1
  6
ByLayer
 62
    7
370
   -1
100
AcDbPolyline
 90
    2
 70
    1
 43
0
 10
49.167426
 20
201.613352
 10
49.167426
 20
201.613352
  0
LWPOLYLINE
  5
AD
100
AcDbEntity
  8
Layer_1
  6
ByLayer
 62
    7
370
   -1
100
AcDbPolyline
 90
   37
 70
    1
 43
0
 10
2.632879
 20
326.059348
 10
11.132879
 20
328.559349
 10
40.132878
 20
298.559349
 10
62.632878
 20
273.559351
 10
86.19225
 20
273.559351
 10
96.38287699999999
 20
273.559351
 10
105.757878
 20
273.559351
 10
115.880538
 20
273.559351
 10
124.507879
 20
273.559351
 10
133.882878
 20
273.559351
 10
143.25788
 20
273.559351
 10
165.132879
 20
273.559351
 10
190.13288
 20
298.559349
 10
219.132878
 20
328.559349
 10
227.632879
 20
326.059348
 10
230.132879
 20
317.559348
 10
210.132879
 20
293.55935
 10
210.132879
 20
105.000004
 10
225
 20
90.000006
 10
225
 20
-5.000005
 10
210.000001
 20
-5.000005
 10
200.000001
 20
5.000004
 10
200.000001
 20
46.451116
 10
200.000001
 20
64.35556200000001
 10
190.000001
 20
75.000005
 10
39.999999
 20
75.000005
 10
29.999999
 20
63.791117
 10
29.999999
 20
46.451116
 10
29.999999
 20
5.000004
 10
20
 20
-5.000005
 10
5.000001
 20
-5.000005
 10
5.000001
 20
90.000006
 10
20.132878
 20
105.000004
 10
20.132878
 20
213.560702
 10
20.132878
 20
293.560705
 10
0.132879
 20
317.560703
 10
2.632879
 20
326.059348
  0
LWPOLYLINE
  5
AE
100
AcDbEntity
  8
Layer_1
  6
ByLayer
 62
    5
370
   -1
100
AcDbPolyline
 90
   15
 70
    1
 43
0
 10
105.864447
 20
237.706907
 10
103.10148
 20
227.447413
 10
100.173148
 20
227.447413
 10
98.33346899999999
 20
234.130898
 10
96.542018
 20
227.447413
 10
93.61368899999999
 20
227.447413
 10
90.850722
 20
237.706907
 10
93.61368899999999
 20
237.706907
 10
95.191542
 20
230.644463
 10
97.079454
 20
237.706907
 10
99.71839799999999
 20
237.706907
 10
101.516738
 20
230.644463
 10
103.170382
 20
237.706907
 10
105.864447
 20
237.706907
 10
105.864447
 20
237.706907
  0
LWPOLYLINE
  5
AF
100
AcDbEntity
  8
Layer_1
  6
ByLayer
 62
    5
370
   -1
100
AcDbPolyline
 90
    6
 70
    1
 43
0
 10
112.31469
 20
227.447413
 10
109.834222
 20
227.447413
 10
109.834222
 20
235.185099
 10
112.31469
 20
235.185099
 10
112.31469
 20
227.447413
 10
112.31469
 20
227.447413
  0
LWPOLYLINE
  5
B0
100
AcDbEntity
  8
Layer_1
  6
ByLayer
 62
    5
370
   -1
100
AcDbPolyline
 90
    6
 70
    1
 43
0
 10
112.383592
 20
236.28753
 10
109.76532
 20
236.28753
 10
109.76532
 20
238.168549
 10
112.383592
 20
238.168549
 10
112.383592
 20
236.28753
 10
112.383592
 20
236.28753
  0
SPLINE
  5
B1
100
AcDbEntity
  8
Layer_1
  6
ByLayer
 62
    5
370
   -1
100
AcDbSpline
210
0
220
0
230
0
 70
    8
 71
    3
 72
    8
 73
    4
 74
    0
 42
1e-007
 43
1e-007
 40
0
 40
0
 40
0
 40
0
 40
1
 40
1
 40
1
 40
1
 10
130.878918
 20
229.900322
 30
0
 10
130.878918
 20
229.101059
 30
0
 10
130.520628
 20
228.455678
 30
0
 10
129.804049
 20
227.964178
 30
0
  0
SPLINE
  5
B2
100
AcDbEntity
  8
Layer_1
  6
ByLayer
 62
    5
370
   -1
100
AcDbSpline
210
0
220
0
230
0
 70
    8
 71
    3
 72
    8
 73
    4
 74
    0
 42
1e-007
 43
1e-007
 40
0
 40
0
 40
0
 40
0
 40
1
 40
1
 40
1
 40
1
 10
129.804049
 20
227.964178
 30
0
 10
129.087468
 20
227.477272
 30
0
 10
128.106764
 20
227.233818
 30
0
 10
126.861936
 20
227.233818
 30
0
  0
SPLINE
  5
B3
100
AcDbEntity
  8
Layer_1
  6
ByLayer
 62
    5
370
   -1
100
AcDbSpline
210
0
220
0
230
0
 70
    8
 71
    3
 72
    8
 73
    4
 74
    0
 42
1e-007
 43
1e-007
 40
0
 40
0
 40
0
 40
0
 40
1
 40
1
 40
1
 40
1
 10
126.861936
 20
227.233818
 30
0
 10
126.172917
 20
227.233818
 30
0
 10
125.548207
 20
227.298126
 30
0
 10
124.987805
 20
227.426743
 30
0
  0
SPLINE
  5
B4
100
AcDbEntity
  8
Layer_1
  6
ByLayer
 62
    5
370
   -1
100
AcDbSpline
210
0
220
0
230
0
 70
    8
 71
    3
 72
    8
 73
    4
 74
    0
 42
1e-007
 43
1e-007
 40
0
 40
0
 40
0
 40
0
 40
1
 40
1
 40
1
 40
1
 10
124.987805
 20
227.426743
 30
0
 10
124.427402
 20
227.555359
 30
0
 10
123.977243
 20
227.697756
 30
0
 10
123.637327
 20
227.853934
 30
0
  0
LWPOLYLINE
  5
B5
100
AcDbEntity
  8
Layer_1
  6
ByLayer
 62
    5
370
   -1
100
AcDbPolyline
 90
    6
 70
    1
 43
0
 10
119.474625
 20
227.447413
 10
116.994157
 20
227.447413
 10
116.994157
 20
238.168549
 10
119.474625
 20
238.168549
 10
119.474625
 20
227.447413
 10
119.474625
 20
227.447413
  0
SPLINE
  5
B6
100
AcDbEntity
  8
Layer_1
  6
ByLayer
 62
    5
370
   -1
100
AcDbSpline
210
0
220
0
230
0
 70
    8
 71
    3
 72
    8
 73
    4
 74
    0
 42
1e-007
 43
1e-007
 40
0
 40
0
 40
0
 40
0
 40
1
 40
1
 40
1
 40
1
 10
123.864702
 20
229.893433
 30
0
 10
123.988726
 20
229.806156
 30
0
 10
124.131124
 20
229.709693
 30
0
 10
124.291896
 20
229.604042
 30
0
  0
SPLINE
  5
B7
100
AcDbEntity
  8
Layer_1
  6
ByLayer
 62
    5
370
   -1
100
AcDbSpline
210
0
220
0
230
0
 70
    8
 71
    3
 72
    8
 73
    4
 74
    0
 42
1e-007
 43
1e-007
 40
0
 40
0
 40
0
 40
0
 40
1
 40
1
 40
1
 40
1
 10
124.291896
 20
229.604042
 30
0
 10
124.45726
 20
229.502987
 30
0
 10
124.689229
 20
229.392745
 30
0
 10
124.987805
 20
229.273314
 30
0
  0
SPLINE
  5
B8
100
AcDbEntity
  8
Layer_1
  6
ByLayer
 62
    5
370
   -1
100
AcDbSpline
210
0
220
0
230
0
 70
    8
 71
    3
 72
    8
 73
    4
 74
    0
 42
1e-007
 43
1e-007
 40
0
 40
0
 40
0
 40
0
 40
1
 40
1
 40
1
 40
1
 10
124.987805
 20
229.273314
 30
0
 10
125.245038
 20
229.167665
 30
0
 10
125.536722
 20
229.075796
 30
0
 10
125.862858
 20
228.997707
 30
0
  0
SPLINE
  5
B9
100
AcDbEntity
  8
Layer_1
  6
ByLayer
 62
    5
370
   -1
100
AcDbSpline
210
0
220
0
230
0
 70
    8
 71
    3
 72
    8
 73
    4
 74
    0
 42
1e-007
 43
1e-007
 40
0
 40
0
 40
0
 40
0
 40
1
 40
1
 40
1
 40
1
 10
125.862858
 20
228.997707
 30
0
 10
126.188994
 20
228.924211
 30
0
 10
126.538097
 20
228.887463
 30
0
 10
126.910168
 20
228.887463
 30
0
  0
SPLINE
  5
BA
100
AcDbEntity
  8
Layer_1
  6
ByLayer
 62
    5
370
   -1
100
AcDbSpline
210
0
220
0
230
0
 70
    8
 71
    3
 72
    8
 73
    4
 74
    0
 42
1e-007
 43
1e-007
 40
0
 40
0
 40
0
 40
0
 40
1
 40
1
 40
1
 40
1
 10
126.910168
 20
228.887463
 30
0
 10
127.397074
 20
228.887463
 30
0
 10
127.757661
 20
228.940288
 30
0
 10
127.991928
 20
229.045939
 30
0
  0
SPLINE
  5
BB
100
AcDbEntity
  8
Layer_1
  6
ByLayer
 62
    5
370
   -1
100
AcDbSpline
210
0
220
0
230
0
 70
    8
 71
    3
 72
    8
 73
    4
 74
    0
 42
1e-007
 43
1e-007
 40
0
 40
0
 40
0
 40
0
 40
1
 40
1
 40
1
 40
1
 10
127.991928
 20
229.045939
 30
0
 10
128.226193
 20
229.156181
 30
0
 10
128.343326
 20
229.316951
 30
0
 10
128.343326
 20
229.528251
 30
0
  0
SPLINE
  5
BC
100
AcDbEntity
  8
Layer_1
  6
ByLayer
 62
    5
370
   -1
100
AcDbSpline
210
0
220
0
230
0
 70
    8
 71
    3
 72
    8
 73
    4
 74
    0
 42
1e-007
 43
1e-007
 40
0
 40
0
 40
0
 40
0
 40
1
 40
1
 40
1
 40
1
 10
128.343326
 20
229.528251
 30
0
 10
128.343326
 20
229.716584
 30
0
 10
128.274424
 20
229.852091
 30
0
 10
128.136621
 20
229.934772
 30
0
  0
SPLINE
  5
BD
100
AcDbEntity
  8
Layer_1
  6
ByLayer
 62
    5
370
   -1
100
AcDbSpline
210
0
220
0
230
0
 70
    8
 71
    3
 72
    8
 73
    4
 74
    0
 42
1e-007
 43
1e-007
 40
0
 40
0
 40
0
 40
0
 40
1
 40
1
 40
1
 40
1
 10
128.136621
 20
229.934772
 30
0
 10
127.998817
 20
230.022049
 30
0
 10
127.73699
 20
230.104731
 30
0
 10
127.35114
 20
230.18282
 30
0
  0
SPLINE
  5
BE
100
AcDbEntity
  8
Layer_1
  6
ByLayer
 62
    5
370
   -1
100
AcDbSpline
210
0
220
0
230
0
 70
    8
 71
    3
 72
    8
 73
    4
 74
    0
 42
1e-007
 43
1e-007
 40
0
 40
0
 40
0
 40
0
 40
1
 40
1
 40
1
 40
1
 10
127.35114
 20
230.18282
 30
0
 10
127.167402
 20
230.22416
 30
0
 10
126.917059
 20
230.267797
 30
0
 10
126.60011
 20
230.313732
 30
0
  0
SPLINE
  5
BF
100
AcDbEntity
  8
Layer_1
  6
ByLayer
 62
    5
370
   -1
100
AcDbSpline
210
0
220
0
230
0
 70
    8
 71
    3
 72
    8
 73
    4
 74
    0
 42
1e-007
 43
1e-007
 40
0
 40
0
 40
0
 40
0
 40
1
 40
1
 40
1
 40
1
 10
126.60011
 20
230.313732
 30
0
 10
126.287754
 20
230.364261
 30
0
 10
126.002959
 20
230.423976
 30
0
 10
125.745724
 20
230.492878
 30
0
  0
SPLINE
  5
C0
100
AcDbEntity
  8
Layer_1
  6
ByLayer
 62
    5
370
   -1
100
AcDbSpline
210
0
220
0
230
0
 70
    8
 71
    3
 72
    8
 73
    4
 74
    0
 42
1e-007
 43
1e-007
 40
0
 40
0
 40
0
 40
0
 40
1
 40
1
 40
1
 40
1
 10
125.745724
 20
230.492878
 30
0
 10
125.042925
 20
230.676616
 30
0
 10
124.521568
 20
230.96141
 30
0
 10
124.181652
 20
231.347261
 30
0
  0
SPLINE
  5
C1
100
AcDbEntity
  8
Layer_1
  6
ByLayer
 62
    5
370
   -1
100
AcDbSpline
210
0
220
0
230
0
 70
    8
 71
    3
 72
    8
 73
    4
 74
    0
 42
1e-007
 43
1e-007
 40
0
 40
0
 40
0
 40
0
 40
1
 40
1
 40
1
 40
1
 10
124.181652
 20
231.347261
 30
0
 10
123.841736
 20
231.737706
 30
0
 10
123.671778
 20
232.222316
 30
0
 10
123.671778
 20
232.801092
 30
0
  0
SPLINE
  5
C2
100
AcDbEntity
  8
Layer_1
  6
ByLayer
 62
    5
370
   -1
100
AcDbSpline
210
0
220
0
230
0
 70
    8
 71
    3
 72
    8
 73
    4
 74
    0
 42
1e-007
 43
1e-007
 40
0
 40
0
 40
0
 40
0
 40
1
 40
1
 40
1
 40
1
 10
123.671778
 20
232.801092
 30
0
 10
123.671778
 20
233.545233
 30
0
 10
124.023177
 20
234.163053
 30
0
 10
124.725977
 20
234.654552
 30
0
  0
SPLINE
  5
C3
100
AcDbEntity
  8
Layer_1
  6
ByLayer
 62
    5
370
   -1
100
AcDbSpline
210
0
220
0
230
0
 70
    8
 71
    3
 72
    8
 73
    4
 74
    0
 42
1e-007
 43
1e-007
 40
0
 40
0
 40
0
 40
0
 40
1
 40
1
 40
1
 40
1
 10
124.725977
 20
234.654552
 30
0
 10
125.43337
 20
235.150646
 30
0
 10
126.397997
 20
235.398693
 30
0
 10
127.619858
 20
235.398693
 30
0
  0
SPLINE
  5
C4
100
AcDbEntity
  8
Layer_1
  6
ByLayer
 62
    5
370
   -1
100
AcDbSpline
210
0
220
0
230
0
 70
    8
 71
    3
 72
    8
 73
    4
 74
    0
 42
1e-007
 43
1e-007
 40
0
 40
0
 40
0
 40
0
 40
1
 40
1
 40
1
 40
1
 10
127.619858
 20
235.398693
 30
0
 10
128.198633
 20
235.398693
 30
0
 10
128.752146
 20
235.338979
 30
0
 10
129.280394
 20
235.21955
 30
0
  0
SPLINE
  5
C5
100
AcDbEntity
  8
Layer_1
  6
ByLayer
 62
    5
370
   -1
100
AcDbSpline
210
0
220
0
230
0
 70
    8
 71
    3
 72
    8
 73
    4
 74
    0
 42
1e-007
 43
1e-007
 40
0
 40
0
 40
0
 40
0
 40
1
 40
1
 40
1
 40
1
 10
129.280394
 20
235.21955
 30
0
 10
129.813235
 20
235.104712
 30
0
 10
130.228943
 20
234.980688
 30
0
 10
130.527517
 20
234.84748
 30
0
  0
LWPOLYLINE
  5
C6
100
AcDbEntity
  8
Layer_1
  6
ByLayer
 62
    5
370
   -1
100
AcDbPolyline
 90
    3
 70
    1
 43
0
 10
123.637327
 20
227.853934
 10
123.637327
 20
229.893433
 10
123.864702
 20
229.893433
  0
SPLINE
  5
C7
100
AcDbEntity
  8
Layer_1
  6
ByLayer
 62
    5
370
   -1
100
AcDbSpline
210
0
220
0
230
0
 70
    8
 71
    3
 72
    8
 73
    4
 74
    0
 42
1e-007
 43
1e-007
 40
0
 40
0
 40
0
 40
0
 40
1
 40
1
 40
1
 40
1
 10
130.313923
 20
232.890664
 30
0
 10
129.946445
 20
233.143305
 30
0
 10
129.526143
 20
233.347714
 30
0
 10
129.053016
 20
233.50389
 30
0
  0
SPLINE
  5
C8
100
AcDbEntity
  8
Layer_1
  6
ByLayer
 62
    5
370
   -1
100
AcDbSpline
210
0
220
0
230
0
 70
    8
 71
    3
 72
    8
 73
    4
 74
    0
 42
1e-007
 43
1e-007
 40
0
 40
0
 40
0
 40
0
 40
1
 40
1
 40
1
 40
1
 10
129.053016
 20
233.50389
 30
0
 10
128.584484
 20
233.664663
 30
0
 10
128.109061
 20
233.745049
 30
0
 10
127.626747
 20
233.745049
 30
0
  0
SPLINE
  5
C9
100
AcDbEntity
  8
Layer_1
  6
ByLayer
 62
    5
370
   -1
100
AcDbSpline
210
0
220
0
230
0
 70
    8
 71
    3
 72
    8
 73
    4
 74
    0
 42
1e-007
 43
1e-007
 40
0
 40
0
 40
0
 40
0
 40
1
 40
1
 40
1
 40
1
 10
127.626747
 20
233.745049
 30
0
 10
127.227116
 20
233.745049
 30
0
 10
126.889497
 20
233.689927
 30
0
 10
126.613888
 20
233.579684
 30
0
  0
SPLINE
  5
CA
100
AcDbEntity
  8
Layer_1
  6
ByLayer
 62
    5
370
   -1
100
AcDbSpline
210
0
220
0
230
0
 70
    8
 71
    3
 72
    8
 73
    4
 74
    0
 42
1e-007
 43
1e-007
 40
0
 40
0
 40
0
 40
0
 40
1
 40
1
 40
1
 40
1
 10
126.613888
 20
233.579684
 30
0
 10
126.342876
 20
233.46944
 30
0
 10
126.207369
 20
233.313262
 30
0
 10
126.207369
 20
233.11115
 30
0
  0
SPLINE
  5
CB
100
AcDbEntity
  8
Layer_1
  6
ByLayer
 62
    5
370
   -1
100
AcDbSpline
210
0
220
0
230
0
 70
    8
 71
    3
 72
    8
 73
    4
 74
    0
 42
1e-007
 43
1e-007
 40
0
 40
0
 40
0
 40
0
 40
1
 40
1
 40
1
 40
1
 10
126.207369
 20
233.11115
 30
0
 10
126.207369
 20
232.927412
 30
0
 10
126.26938
 20
232.787311
 30
0
 10
126.393402
 20
232.690847
 30
0
  0
SPLINE
  5
CC
100
AcDbEntity
  8
Layer_1
  6
ByLayer
 62
    5
370
   -1
100
AcDbSpline
210
0
220
0
230
0
 70
    8
 71
    3
 72
    8
 73
    4
 74
    0
 42
1e-007
 43
1e-007
 40
0
 40
0
 40
0
 40
0
 40
1
 40
1
 40
1
 40
1
 10
126.393402
 20
232.690847
 30
0
 10
126.517425
 20
232.594386
 30
0
 10
126.80911
 20
232.497923
 30
0
 10
127.268457
 20
232.40146
 30
0
  0
SPLINE
  5
CD
100
AcDbEntity
  8
Layer_1
  6
ByLayer
 62
    5
370
   -1
100
AcDbSpline
210
0
220
0
230
0
 70
    8
 71
    3
 72
    8
 73
    4
 74
    0
 42
1e-007
 43
1e-007
 40
0
 40
0
 40
0
 40
0
 40
1
 40
1
 40
1
 40
1
 10
127.268457
 20
232.40146
 30
0
 10
127.521097
 20
232.350932
 30
0
 10
127.792111
 20
232.300404
 30
0
 10
128.0815
 20
232.249875
 30
0
  0
SPLINE
  5
CE
100
AcDbEntity
  8
Layer_1
  6
ByLayer
 62
    5
370
   -1
100
AcDbSpline
210
0
220
0
230
0
 70
    8
 71
    3
 72
    8
 73
    4
 74
    0
 42
1e-007
 43
1e-007
 40
0
 40
0
 40
0
 40
0
 40
1
 40
1
 40
1
 40
1
 10
128.0815
 20
232.249875
 30
0
 10
128.375481
 20
232.203941
 30
0
 10
128.669463
 20
232.144226
 30
0
 10
128.963444
 20
232.070732
 30
0
  0
SPLINE
  5
CF
100
AcDbEntity
  8
Layer_1
  6
ByLayer
 62
    5
370
   -1
100
AcDbSpline
210
0
220
0
230
0
 70
    8
 71
    3
 72
    8
 73
    4
 74
    0
 42
1e-007
 43
1e-007
 40
0
 40
0
 40
0
 40
0
 40
1
 40
1
 40
1
 40
1
 10
128.963444
 20
232.070732
 30
0
 10
129.615716
 20
231.900774
 30
0
 10
130.098029
 20
231.632056
 30
0
 10
130.410384
 20
231.264578
 30
0
  0
SPLINE
  5
D0
100
AcDbEntity
  8
Layer_1
  6
ByLayer
 62
    5
370
   -1
100
AcDbSpline
210
0
220
0
230
0
 70
    8
 71
    3
 72
    8
 73
    4
 74
    0
 42
1e-007
 43
1e-007
 40
0
 40
0
 40
0
 40
0
 40
1
 40
1
 40
1
 40
1
 10
130.410384
 20
231.264578
 30
0
 10
130.72274
 20
230.901695
 30
0
 10
130.878918
 20
230.446943
 30
0
 10
130.878918
 20
229.900322
 30
0
  0
LWPOLYLINE
  5
D1
100
AcDbEntity
  8
Layer_1
  6
ByLayer
 62
    5
370
   -1
100
AcDbPolyline
 90
    3
 70
    1
 43
0
 10
130.527517
 20
234.84748
 10
130.527517
 20
232.890664
 10
130.313923
 20
232.890664
  0
SPLINE
  5
D2
100
AcDbEntity
  8
Layer_1
  6
ByLayer
 62
    5
370
   -1
100
AcDbSpline
210
0
220
0
230
0
 70
    8
 71
    3
 72
    8
 73
    4
 74
    0
 42
1e-007
 43
1e-007
 40
0
 40
0
 40
0
 40
0
 40
1
 40
1
 40
1
 40
1
 10
142.779303
 20
231.31281
 30
0
 10
142.779303
 20
230.040422
 30
0
 10
142.407234
 20
229.036752
 30
0
 10
141.663094
 20
228.301798
 30
0
  0
SPLINE
  5
D3
100
AcDbEntity
  8
Layer_1
  6
ByLayer
 62
    5
370
   -1
100
AcDbSpline
210
0
220
0
230
0
 70
    8
 71
    3
 72
    8
 73
    4
 74
    0
 42
1e-007
 43
1e-007
 40
0
 40
0
 40
0
 40
0
 40
1
 40
1
 40
1
 40
1
 10
141.663094
 20
228.301798
 30
0
 10
140.923546
 20
227.571437
 30
0
 10
139.883127
 20
227.206256
 30
0
 10
138.541838
 20
227.206256
 30
0
  0
SPLINE
  5
D4
100
AcDbEntity
  8
Layer_1
  6
ByLayer
 62
    5
370
   -1
100
AcDbSpline
210
0
220
0
230
0
 70
    8
 71
    3
 72
    8
 73
    4
 74
    0
 42
1e-007
 43
1e-007
 40
0
 40
0
 40
0
 40
0
 40
1
 40
1
 40
1
 40
1
 10
138.541838
 20
227.206256
 30
0
 10
137.200547
 20
227.206256
 30
0
 10
136.157831
 20
227.571437
 30
0
 10
135.41369
 20
228.301798
 30
0
  0
SPLINE
  5
D5
100
AcDbEntity
  8
Layer_1
  6
ByLayer
 62
    5
370
   -1
100
AcDbSpline
210
0
220
0
230
0
 70
    8
 71
    3
 72
    8
 73
    4
 74
    0
 42
1e-007
 43
1e-007
 40
0
 40
0
 40
0
 40
0
 40
1
 40
1
 40
1
 40
1
 10
135.41369
 20
228.301798
 30
0
 10
134.674143
 20
229.036752
 30
0
 10
134.30437
 20
230.040422
 30
0
 10
134.30437
 20
231.31281
 30
0
  0
SPLINE
  5
D6
100
AcDbEntity
  8
Layer_1
  6
ByLayer
 62
    5
370
   -1
100
AcDbSpline
210
0
220
0
230
0
 70
    8
 71
    3
 72
    8
 73
    4
 74
    0
 42
1e-007
 43
1e-007
 40
0
 40
0
 40
0
 40
0
 40
1
 40
1
 40
1
 40
1
 10
134.30437
 20
231.31281
 30
0
 10
134.30437
 20
232.594387
 30
0
 10
134.676441
 20
233.600355
 30
0
 10
135.420582
 20
234.330714
 30
0
  0
SPLINE
  5
D7
100
AcDbEntity
  8
Layer_1
  6
ByLayer
 62
    5
370
   -1
100
AcDbSpline
210
0
220
0
230
0
 70
    8
 71
    3
 72
    8
 73
    4
 74
    0
 42
1e-007
 43
1e-007
 40
0
 40
0
 40
0
 40
0
 40
1
 40
1
 40
1
 40
1
 10
135.420582
 20
234.330714
 30
0
 10
136.169315
 20
235.061075
 30
0
 10
137.209734
 20
235.426255
 30
0
 10
138.541838
 20
235.426255
 30
0
  0
SPLINE
  5
D8
100
AcDbEntity
  8
Layer_1
  6
ByLayer
 62
    5
370
   -1
100
AcDbSpline
210
0
220
0
230
0
 70
    8
 71
    3
 72
    8
 73
    4
 74
    0
 42
1e-007
 43
1e-007
 40
0
 40
0
 40
0
 40
0
 40
1
 40
1
 40
1
 40
1
 10
138.541838
 20
235.426255
 30
0
 10
139.892315
 20
235.426255
 30
0
 10
140.93503
 20
235.058778
 30
0
 10
141.669983
 20
234.323825
 30
0
  0
SPLINE
  5
D9
100
AcDbEntity
  8
Layer_1
  6
ByLayer
 62
    5
370
   -1
100
AcDbSpline
210
0
220
0
230
0
 70
    8
 71
    3
 72
    8
 73
    4
 74
    0
 42
1e-007
 43
1e-007
 40
0
 40
0
 40
0
 40
0
 40
1
 40
1
 40
1
 40
1
 10
141.669983
 20
234.323825
 30
0
 10
142.40953
 20
233.588871
 30
0
 10
142.779303
 20
232.585199
 30
0
 10
142.779303
 20
231.31281
 30
0
  0
LWPOLYLINE
  5
DA
100
AcDbEntity
  8
Layer_1
  6
ByLayer
 62
    5
370
   -1
100
AcDbPolyline
 90
    2
 70
    1
 43
0
 10
130.878918
 20
229.900322
 10
130.878918
 20
229.900322
  0
SPLINE
  5
DB
100
AcDbEntity
  8
Layer_1
  6
ByLayer
 62
    5
370
   -1
100
AcDbSpline
210
0
220
0
230
0
 70
    8
 71
    3
 72
    8
 73
    4
 74
    0
 42
1e-007
 43
1e-007
 40
0
 40
0
 40
0
 40
0
 40
1
 40
1
 40
1
 40
1
 10
139.726948
 20
229.431788
 30
0
 10
139.887721
 20
229.629307
 30
0
 10
140.007152
 20
229.865871
 30
0
 10
140.085241
 20
230.141478
 30
0
  0
SPLINE
  5
DC
100
AcDbEntity
  8
Layer_1
  6
ByLayer
 62
    5
370
   -1
100
AcDbSpline
210
0
220
0
230
0
 70
    8
 71
    3
 72
    8
 73
    4
 74
    0
 42
1e-007
 43
1e-007
 40
0
 40
0
 40
0
 40
0
 40
1
 40
1
 40
1
 40
1
 10
140.085241
 20
230.141478
 30
0
 10
140.167923
 20
230.421679
 30
0
 10
140.209263
 20
230.80753
 30
0
 10
140.209263
 20
231.299029
 30
0
  0
SPLINE
  5
DD
100
AcDbEntity
  8
Layer_1
  6
ByLayer
 62
    5
370
   -1
100
AcDbSpline
210
0
220
0
230
0
 70
    8
 71
    3
 72
    8
 73
    4
 74
    0
 42
1e-007
 43
1e-007
 40
0
 40
0
 40
0
 40
0
 40
1
 40
1
 40
1
 40
1
 10
140.209263
 20
231.299029
 30
0
 10
140.209263
 20
231.753783
 30
0
 10
140.167923
 20
232.135041
 30
0
 10
140.085241
 20
232.442802
 30
0
  0
SPLINE
  5
DE
100
AcDbEntity
  8
Layer_1
  6
ByLayer
 62
    5
370
   -1
100
AcDbSpline
210
0
220
0
230
0
 70
    8
 71
    3
 72
    8
 73
    4
 74
    0
 42
1e-007
 43
1e-007
 40
0
 40
0
 40
0
 40
0
 40
1
 40
1
 40
1
 40
1
 10
140.085241
 20
232.442802
 30
0
 10
140.002557
 20
232.750564
 30
0
 10
139.88772
 20
232.996313
 30
0
 10
139.740729
 20
233.180051
 30
0
  0
SPLINE
  5
DF
100
AcDbEntity
  8
Layer_1
  6
ByLayer
 62
    5
370
   -1
100
AcDbSpline
210
0
220
0
230
0
 70
    8
 71
    3
 72
    8
 73
    4
 74
    0
 42
1e-007
 43
1e-007
 40
0
 40
0
 40
0
 40
0
 40
1
 40
1
 40
1
 40
1
 10
139.740729
 20
233.180051
 30
0
 10
139.593739
 20
233.368384
 30
0
 10
139.416891
 20
233.501595
 30
0
 10
139.210185
 20
233.579684
 30
0
  0
SPLINE
  5
E0
100
AcDbEntity
  8
Layer_1
  6
ByLayer
 62
    5
370
   -1
100
AcDbSpline
210
0
220
0
230
0
 70
    8
 71
    3
 72
    8
 73
    4
 74
    0
 42
1e-007
 43
1e-007
 40
0
 40
0
 40
0
 40
0
 40
1
 40
1
 40
1
 40
1
 10
139.210185
 20
233.579684
 30
0
 10
139.00348
 20
233.657773
 30
0
 10
138.780698
 20
233.696817
 30
0
 10
138.541838
 20
233.696817
 30
0
  0
SPLINE
  5
E1
100
AcDbEntity
  8
Layer_1
  6
ByLayer
 62
    5
370
   -1
100
AcDbSpline
210
0
220
0
230
0
 70
    8
 71
    3
 72
    8
 73
    4
 74
    0
 42
1e-007
 43
1e-007
 40
0
 40
0
 40
0
 40
0
 40
1
 40
1
 40
1
 40
1
 10
138.541838
 20
233.696817
 30
0
 10
138.302976
 20
233.696817
 30
0
 10
138.08938
 20
233.664663
 30
0
 10
137.90105
 20
233.600354
 30
0
  0
SPLINE
  5
E2
100
AcDbEntity
  8
Layer_1
  6
ByLayer
 62
    5
370
   -1
100
AcDbSpline
210
0
220
0
230
0
 70
    8
 71
    3
 72
    8
 73
    4
 74
    0
 42
1e-007
 43
1e-007
 40
0
 40
0
 40
0
 40
0
 40
1
 40
1
 40
1
 40
1
 10
137.90105
 20
233.600354
 30
0
 10
137.717312
 20
233.536045
 30
0
 10
137.540464
 20
233.407427
 30
0
 10
137.370506
 20
233.214502
 30
0
  0
SPLINE
  5
E3
100
AcDbEntity
  8
Layer_1
  6
ByLayer
 62
    5
370
   -1
100
AcDbSpline
210
0
220
0
230
0
 70
    8
 71
    3
 72
    8
 73
    4
 74
    0
 42
1e-007
 43
1e-007
 40
0
 40
0
 40
0
 40
0
 40
1
 40
1
 40
1
 40
1
 10
137.370506
 20
233.214502
 30
0
 10
137.21892
 20
233.035359
 30
0
 10
137.097193
 20
232.789609
 30
0
 10
137.005324
 20
232.477253
 30
0
  0
SPLINE
  5
E4
100
AcDbEntity
  8
Layer_1
  6
ByLayer
 62
    5
370
   -1
100
AcDbSpline
210
0
220
0
230
0
 70
    8
 71
    3
 72
    8
 73
    4
 74
    0
 42
1e-007
 43
1e-007
 40
0
 40
0
 40
0
 40
0
 40
1
 40
1
 40
1
 40
1
 10
137.005324
 20
232.477253
 30
0
 10
136.918048
 20
232.164897
 30
0
 10
136.87441
 20
231.772156
 30
0
 10
136.87441
 20
231.299029
 30
0
  0
SPLINE
  5
E5
100
AcDbEntity
  8
Layer_1
  6
ByLayer
 62
    5
370
   -1
100
AcDbSpline
210
0
220
0
230
0
 70
    8
 71
    3
 72
    8
 73
    4
 74
    0
 42
1e-007
 43
1e-007
 40
0
 40
0
 40
0
 40
0
 40
1
 40
1
 40
1
 40
1
 10
136.87441
 20
231.299029
 30
0
 10
136.87441
 20
230.876431
 30
0
 10
136.913454
 20
230.508954
 30
0
 10
136.991543
 20
230.196598
 30
0
  0
SPLINE
  5
E6
100
AcDbEntity
  8
Layer_1
  6
ByLayer
 62
    5
370
   -1
100
AcDbSpline
210
0
220
0
230
0
 70
    8
 71
    3
 72
    8
 73
    4
 74
    0
 42
1e-007
 43
1e-007
 40
0
 40
0
 40
0
 40
0
 40
1
 40
1
 40
1
 40
1
 10
136.991543
 20
230.196598
 30
0
 10
137.069632
 20
229.888837
 30
0
 10
137.18447
 20
229.640791
 30
0
 10
137.336055
 20
229.45246
 30
0
  0
SPLINE
  5
E7
100
AcDbEntity
  8
Layer_1
  6
ByLayer
 62
    5
370
   -1
100
AcDbSpline
210
0
220
0
230
0
 70
    8
 71
    3
 72
    8
 73
    4
 74
    0
 42
1e-007
 43
1e-007
 40
0
 40
0
 40
0
 40
0
 40
1
 40
1
 40
1
 40
1
 10
137.336055
 20
229.45246
 30
0
 10
137.483046
 20
229.273315
 30
0
 10
137.657596
 20
229.142401
 30
0
 10
137.859707
 20
229.059717
 30
0
  0
SPLINE
  5
E8
100
AcDbEntity
  8
Layer_1
  6
ByLayer
 62
    5
370
   -1
100
AcDbSpline
210
0
220
0
230
0
 70
    8
 71
    3
 72
    8
 73
    4
 74
    0
 42
1e-007
 43
1e-007
 40
0
 40
0
 40
0
 40
0
 40
1
 40
1
 40
1
 40
1
 10
137.859707
 20
229.059717
 30
0
 10
138.066414
 20
228.977035
 30
0
 10
138.300681
 20
228.935694
 30
0
 10
138.562508
 20
228.935694
 30
0
  0
SPLINE
  5
E9
100
AcDbEntity
  8
Layer_1
  6
ByLayer
 62
    5
370
   -1
100
AcDbSpline
210
0
220
0
230
0
 70
    8
 71
    3
 72
    8
 73
    4
 74
    0
 42
1e-007
 43
1e-007
 40
0
 40
0
 40
0
 40
0
 40
1
 40
1
 40
1
 40
1
 10
138.562508
 20
228.935694
 30
0
 10
138.787588
 20
228.935694
 30
0
 10
139.001184
 20
228.972443
 30
0
 10
139.203296
 20
229.045939
 30
0
  0
SPLINE
  5
EA
100
AcDbEntity
  8
Layer_1
  6
ByLayer
 62
    5
370
   -1
100
AcDbSpline
210
0
220
0
230
0
 70
    8
 71
    3
 72
    8
 73
    4
 74
    0
 42
1e-007
 43
1e-007
 40
0
 40
0
 40
0
 40
0
 40
1
 40
1
 40
1
 40
1
 10
139.203296
 20
229.045939
 30
0
 10
139.410002
 20
229.124026
 30
0
 10
139.584552
 20
229.252642
 30
0
 10
139.726948
 20
229.431788
 30
0
  0
LWPOLYLINE
  5
EB
100
AcDbEntity
  8
Layer_1
  6
ByLayer
 62
    5
370
   -1
100
AcDbPolyline
 90
    2
 70
    1
 43
0
 10
142.779303
 20
231.31281
 10
142.779303
 20
231.31281
  0
LWPOLYLINE
  5
EC
100
AcDbEntity
  8
Layer_1
  6
ByLayer
 62
    5
370
   -1
100
AcDbPolyline
 90
    2
 70
    1
 43
0
 10
139.726948
 20
229.431788
 10
139.726948
 20
229.431788
  0
SPLINE
  5
ED
100
AcDbEntity
  8
Layer_1
  6
ByLayer
 62
    5
370
   -1
100
AcDbSpline
210
0
220
0
230
0
 70
    8
 71
    3
 72
    8
 73
    4
 74
    0
 42
1e-007
 43
1e-007
 40
0
 40
0
 40
0
 40
0
 40
1
 40
1
 40
1
 40
1
 10
152.18544
 20
231.285251
 30
0
 10
152.18544
 20
231.597605
 30
0
 10
152.169362
 20
231.907663
 30
0
 10
152.137208
 20
232.215424
 30
0
  0
SPLINE
  5
EE
100
AcDbEntity
  8
Layer_1
  6
ByLayer
 62
    5
370
   -1
100
AcDbSpline
210
0
220
0
230
0
 70
    8
 71
    3
 72
    8
 73
    4
 74
    0
 42
1e-007
 43
1e-007
 40
0
 40
0
 40
0
 40
0
 40
1
 40
1
 40
1
 40
1
 10
152.137208
 20
232.215424
 30
0
 10
152.105053
 20
232.52778
 30
0
 10
152.049932
 20
232.757454
 30
0
 10
151.971845
 20
232.904444
 30
0
  0
SPLINE
  5
EF
100
AcDbEntity
  8
Layer_1
  6
ByLayer
 62
    5
370
   -1
100
AcDbSpline
210
0
220
0
230
0
 70
    8
 71
    3
 72
    8
 73
    4
 74
    0
 42
1e-007
 43
1e-007
 40
0
 40
0
 40
0
 40
0
 40
1
 40
1
 40
1
 40
1
 10
151.971845
 20
232.904444
 30
0
 10
151.879974
 20
233.074402
 30
0
 10
151.744467
 20
233.198426
 30
0
 10
151.565324
 20
233.276515
 30
0
  0
SPLINE
  5
F0
100
AcDbEntity
  8
Layer_1
  6
ByLayer
 62
    5
370
   -1
100
AcDbSpline
210
0
220
0
230
0
 70
    8
 71
    3
 72
    8
 73
    4
 74
    0
 42
1e-007
 43
1e-007
 40
0
 40
0
 40
0
 40
0
 40
1
 40
1
 40
1
 40
1
 10
151.565324
 20
233.276515
 30
0
 10
151.390771
 20
233.354604
 30
0
 10
151.145021
 20
233.393648
 30
0
 10
150.828072
 20
233.393648
 30
0
  0
SPLINE
  5
F1
100
AcDbEntity
  8
Layer_1
  6
ByLayer
 62
    5
370
   -1
100
AcDbSpline
210
0
220
0
230
0
 70
    8
 71
    3
 72
    8
 73
    4
 74
    0
 42
1e-007
 43
1e-007
 40
0
 40
0
 40
0
 40
0
 40
1
 40
1
 40
1
 40
1
 10
150.828072
 20
233.393648
 30
0
 10
150.602992
 20
233.393648
 30
0
 10
150.37332
 20
233.3569
 30
0
 10
150.139055
 20
233.283404
 30
0
  0
SPLINE
  5
F2
100
AcDbEntity
  8
Layer_1
  6
ByLayer
 62
    5
370
   -1
100
AcDbSpline
210
0
220
0
230
0
 70
    8
 71
    3
 72
    8
 73
    4
 74
    0
 42
1e-007
 43
1e-007
 40
0
 40
0
 40
0
 40
0
 40
1
 40
1
 40
1
 40
1
 10
150.139055
 20
233.283404
 30
0
 10
149.90938
 20
233.20991
 30
0
 10
149.659036
 20
233.092777
 30
0
 10
149.388022
 20
232.932006
 30
0
  0
LWPOLYLINE
  5
F3
100
AcDbEntity
  8
Layer_1
  6
ByLayer
 62
    5
370
   -1
100
AcDbPolyline
 90
    3
 70
    1
 43
0
 10
154.679689
 20
227.447413
 10
152.18544
 20
227.447413
 10
152.18544
 20
231.285251
  0
SPLINE
  5
F4
100
AcDbEntity
  8
Layer_1
  6
ByLayer
 62
    5
370
   -1
100
AcDbSpline
210
0
220
0
230
0
 70
    8
 71
    3
 72
    8
 73
    4
 74
    0
 42
1e-007
 43
1e-007
 40
0
 40
0
 40
0
 40
0
 40
1
 40
1
 40
1
 40
1
 10
149.388022
 20
234.330714
 30
0
 10
149.828994
 20
234.675224
 30
0
 10
150.251593
 20
234.939349
 30
0
 10
150.655818
 20
235.123086
 30
0
  0
SPLINE
  5
F5
100
AcDbEntity
  8
Layer_1
  6
ByLayer
 62
    5
370
   -1
100
AcDbSpline
210
0
220
0
230
0
 70
    8
 71
    3
 72
    8
 73
    4
 74
    0
 42
1e-007
 43
1e-007
 40
0
 40
0
 40
0
 40
0
 40
1
 40
1
 40
1
 40
1
 10
150.655818
 20
235.123086
 30
0
 10
151.064635
 20
235.306824
 30
0
 10
151.517091
 20
235.398693
 30
0
 10
152.013185
 20
235.398693
 30
0
  0
SPLINE
  5
F6
100
AcDbEntity
  8
Layer_1
  6
ByLayer
 62
    5
370
   -1
100
AcDbSpline
210
0
220
0
230
0
 70
    8
 71
    3
 72
    8
 73
    4
 74
    0
 42
1e-007
 43
1e-007
 40
0
 40
0
 40
0
 40
0
 40
1
 40
1
 40
1
 40
1
 10
152.013185
 20
235.398693
 30
0
 10
152.849195
 20
235.398693
 30
0
 10
153.501466
 20
235.15524
 30
0
 10
153.969998
 20
234.668333
 30
0
  0
SPLINE
  5
F7
100
AcDbEntity
  8
Layer_1
  6
ByLayer
 62
    5
370
   -1
100
AcDbSpline
210
0
220
0
230
0
 70
    8
 71
    3
 72
    8
 73
    4
 74
    0
 42
1e-007
 43
1e-007
 40
0
 40
0
 40
0
 40
0
 40
1
 40
1
 40
1
 40
1
 10
153.969998
 20
234.668333
 30
0
 10
154.443125
 20
234.181427
 30
0
 10
154.679689
 20
233.453363
 30
0
 10
154.679689
 20
232.484142
 30
0
  0
LWPOLYLINE
  5
F8
100
AcDbEntity
  8
Layer_1
  6
ByLayer
 62
    5
370
   -1
100
AcDbPolyline
 90
    6
 70
    1
 43
0
 10
149.388022
 20
232.932006
 10
149.388022
 20
227.447413
 10
146.907554
 20
227.447413
 10
146.907554
 20
235.185099
 10
149.388022
 20
235.185099
 10
149.388022
 20
234.330714
  0
SPLINE
  5
F9
100
AcDbEntity
  8
Layer_1
  6
ByLayer
 62
    5
370
   -1
100
AcDbSpline
210
0
220
0
230
0
 70
    8
 71
    3
 72
    8
 73
    4
 74
    0
 42
1e-007
 43
1e-007
 40
0
 40
0
 40
0
 40
0
 40
1
 40
1
 40
1
 40
1
 10
77.33293500000001
 20
236.516285
 30
0
 10
76.09463100000001
 20
235.277981
 30
0
 10
75.32844299999999
 20
233.567559
 30
0
 10
75.32844299999999
 20
231.677718
 30
0
  0
SPLINE
  5
FA
100
AcDbEntity
  8
Layer_1
  6
ByLayer
 62
    5
370
   -1
100
AcDbSpline
210
0
220
0
230
0
 70
    8
 71
    3
 72
    8
 73
    4
 74
    0
 42
1e-007
 43
1e-007
 40
0
 40
0
 40
0
 40
0
 40
1
 40
1
 40
1
 40
1
 10
75.32844299999999
 20
231.677718
 30
0
 10
75.32844299999999
 20
227.898325
 30
0
 10
78.39237199999999
 20
224.834661
 30
0
 10
82.171505
 20
224.834661
 30
0
  0
SPLINE
  5
FB
100
AcDbEntity
  8
Layer_1
  6
ByLayer
 62
    5
370
   -1
100
AcDbSpline
210
0
220
0
230
0
 70
    8
 71
    3
 72
    8
 73
    4
 74
    0
 42
1e-007
 43
1e-007
 40
0
 40
0
 40
0
 40
0
 40
1
 40
1
 40
1
 40
1
 10
82.171505
 20
224.834661
 30
0
 10
85.950636
 20
224.834661
 30
0
 10
89.014567
 20
227.898325
 30
0
 10
89.014567
 20
231.677718
 30
0
  0
SPLINE
  5
FC
100
AcDbEntity
  8
Layer_1
  6
ByLayer
 62
    5
370
   -1
100
AcDbSpline
210
0
220
0
230
0
 70
    8
 71
    3
 72
    8
 73
    4
 74
    0
 42
1e-007
 43
1e-007
 40
0
 40
0
 40
0
 40
0
 40
1
 40
1
 40
1
 40
1
 10
89.014567
 20
231.677718
 30
0
 10
89.014567
 20
233.567286
 30
0
 10
88.248653
 20
235.277981
 30
0
 10
87.01034900000001
 20
236.516149
 30
0
  0
LWPOLYLINE
  5
FD
100
AcDbEntity
  8
Layer_1
  6
ByLayer
 62
    5
370
   -1
100
AcDbPolyline
 90
    3
 70
    1
 43
0
 10
154.679689
 20
232.484142
 10
154.679689
 20
227.447413
 10
154.679689
 20
227.447413
  0
LWPOLYLINE
  5
FE
100
AcDbEntity
  8
Layer_1
  6
ByLayer
 62
    5
370
   -1
100
AcDbPolyline
 90
    4
 70
    1
 43
0
 10
82.171505
 20
241.355129
 10
77.33293500000001
 20
236.516285
 10
82.171505
 20
241.355129
 10
82.171505
 20
241.355129
  0
LWPOLYLINE
  5
FF
100
AcDbEntity
  8
Layer_1
  6
ByLayer
 62
    5
370
   -1
100
AcDbPolyline
 90
    5
 70
    1
 43
0
 10
87.01034900000001
 20
236.516149
 10
82.171505
 20
241.355129
 10
82.171505
 20
241.355129
 10
87.01034900000001
 20
236.516149
 10
87.01034900000001
 20
236.516149
  0
SPLINE
  5
100
100
AcDbEntity
  8
Layer_1
  6
ByLayer
 62
    5
370
   -1
100
AcDbSpline
210
0
220
0
230
0
 70
    8
 71
    3
 72
    8
 73
    4
 74
    0
 42
1e-007
 43
1e-007
 40
0
 40
0
 40
0
 40
0
 40
1
 40
1
 40
1
 40
1
 10
156.448508
 20
245.540899
 30
0
 10
157.556507
 20
245.540899
 30
0
 10
158.448507
 20
244.648899
 30
0
 10
158.448507
 20
243.5409
 30
0
  0
LWPOLYLINE
  5
101
100
AcDbEntity
  8
Layer_1
  6
ByLayer
 62
    5
370
   -1
100
AcDbPolyline
 90
    2
 70
    1
 43
0
 10
72.948505
 20
245.540899
 10
156.448508
 20
245.540899
  0
SPLINE
  5
102
100
AcDbEntity
  8
Layer_1
  6
ByLayer
 62
    5
370
   -1
100
AcDbSpline
210
0
220
0
230
0
 70
    8
 71
    3
 72
    8
 73
    4
 74
    0
 42
1e-007
 43
1e-007
 40
0
 40
0
 40
0
 40
0
 40
1
 40
1
 40
1
 40
1
 10
158.448507
 20
222.540897
 30
0
 10
158.448507
 20
221.432899
 30
0
 10
157.556507
 20
220.540899
 30
0
 10
156.448508
 20
220.540899
 30
0
  0
LWPOLYLINE
  5
103
100
AcDbEntity
  8
Layer_1
  6
ByLayer
 62
    5
370
   -1
100
AcDbPolyline
 90
    2
 70
    1
 43
0
 10
158.448507
 20
243.5409
 10
158.448507
 20
222.540897
  0
SPLINE
  5
104
100
AcDbEntity
  8
Layer_1
  6
ByLayer
 62
    5
370
   -1
100
AcDbSpline
210
0
220
0
230
0
 70
    8
 71
    3
 72
    8
 73
    4
 74
    0
 42
1e-007
 43
1e-007
 40
0
 40
0
 40
0
 40
0
 40
1
 40
1
 40
1
 40
1
 10
72.948505
 20
220.540899
 30
0
 10
71.840507
 20
220.540899
 30
0
 10
70.94850700000001
 20
221.432899
 30
0
 10
70.94850700000001
 20
222.540897
 30
0
  0
LWPOLYLINE
  5
105
100
AcDbEntity
  8
Layer_1
  6
ByLayer
 62
    5
370
   -1
100
AcDbPolyline
 90
    2
 70
    1
 43
0
 10
156.448508
 20
220.540899
 10
72.948505
 20
220.540899
  0
SPLINE
  5
106
100
AcDbEntity
  8
Layer_1
  6
ByLayer
 62
    5
370
   -1
100
AcDbSpline
210
0
220
0
230
0
 70
    8
 71
    3
 72
    8
 73
    4
 74
    0
 42
1e-007
 43
1e-007
 40
0
 40
0
 40
0
 40
0
 40
1
 40
1
 40
1
 40
1
 10
70.94850700000001
 20
243.5409
 30
0
 10
70.94850700000001
 20
244.648899
 30
0
 10
71.840507
 20
245.540899
 30
0
 10
72.948505
 20
245.540899
 30
0
  0
LWPOLYLINE
  5
107
100
AcDbEntity
  8
Layer_1
  6
ByLayer
 62
    5
370
   -1
100
AcDbPolyline
 90
    2
 70
    1
 43
0
 10
70.94850700000001
 20
222.540897
 10
70.94850700000001
 20
243.5409
  0
LWPOLYLINE
  5
108
100
AcDbEntity
  8
Layer_1
  6
ByLayer
 62
    5
370
   -1
100
AcDbPolyline
 90
    2
 70
    1
 43
0
 10
72.948505
 20
245.540899
 10
72.948505
 20
245.540899
  0
DIMENSION
  5
109
100
AcDbEntity
  8
Dimensions
  6
ByLayer
 62
  256
370
   -1
100
AcDbDimension
  2
*D1
 10
230.132879
 20
380
 30
0
 11
115.132879
 21
381.875
 31
0
 70
   32
 71
    5
  3
Standard
 53
0
210
0
220
0
230
1
100
AcDbAlignedDimension
 13
0.132879000000017
 23
317.560703
 33
0
 14
230.132879
 24
317.559348
 34
0
100
AcDbRotatedDimension
  0
DIMENSION
  5
10A
100
AcDbEntity
  8
Dimensions
  6
ByLayer
 62
  256
370
   -1
100
AcDbDimension
  2
*D2
 10
-30.00000000000002
 20
-5.000004999999995
 30
0
 11
-31.87500000000001
 21
161.779672
 31
0
 70
   32
 71
    5
  3
Standard
 53
0
210
0
220
0
230
1
100
AcDbAlignedDimension
 13
11.132879
 23
328.559349
 33
0
 14
5.000001
 24
-5.000005
 34
0
 50
90
100
AcDbRotatedDimension
  0
DIMENSION
  5
10B
100
AcDbEntity
  8
Dimensions
  6
ByLayer
 62
  256
370
   -1
100
AcDbDimension
  2
*D3
 10
260
 20
328.559349
 30
0
 11
258.125
 21
161.779672
 31
0
 70
   32
 71
    5
  3
Standard
 53
0
210
0
220
0
230
1
100
AcDbAlignedDimension
 13
225
 23
-5.000005
 33
0
 14
219.132878
 24
328.559349
 34
0
 50
90
100
AcDbRotatedDimension
  0
ENDSEC
  0
SECTION
  2
OBJECTS
  0
DICTIONARY
  5
C
330
0
100
AcDbDictionary
281
    1
  3
ACAD_GROUP
350
D
  0
DICTIONARY
  5
D
330
C
100
AcDbDictionary
281
    1
  0
ENDSEC
  0
EOF
